<?xml version="1.0" encoding="utf-8"?>
<!-- Generator: Adobe Illustrator 27.5.0, SVG Export Plug-In . SVG Version: 6.00 Build 0)  -->
<svg version="1.1" id="Capa_1" xmlns="http://www.w3.org/2000/svg" xmlns:xlink="http://www.w3.org/1999/xlink" x="0px" y="0px"
	 viewBox="0 0 425.2 425.2" style="enable-background:new 0 0 425.2 425.2;" xml:space="preserve">
<g>
	<rect x="0.002" y="0.002" style="fill:#FFFFFF;" width="425.197" height="425.196"/>
	<path style="fill:#F4D49D;" d="M330.33,383.692c44.376,14.059,64.854-25.367,50.6-63.413c-6.189-16.52-11.454-35.107-9.354-53.351
		c1.362-11.832,9.497-20.131,13.385-30.952c3.881-10.802,5.416-24.273,7.525-35.7c4.382-23.743-10.888-42.865-9.838-67.238
		c1.275-29.606,16.483-64.22-21.166-76.751c-23.561-7.841-48.807,0.966-71.637-10.545c-12.64-6.373-22.01-15.367-36.06-19.119
		c-13.108-3.5-27.865-5.466-41.493-4.058c-11.159,1.151-21.458,5.489-29.921,12.864c-10.026,8.737-20.287,18.798-35.204,14.36
		c-6.684-1.988-11.968-7.576-18.371-10.39c-7.816-3.435-16.754-5.197-24.936-7.214c-14.415-3.554-31.381-5.245-45.295,1.174
		C25.1,48.801,25.04,98.543,38.658,127.805c8.667,18.623,25.473,30.926,28.758,52.613c2.157,14.234-1.568,23.639-10.081,34.122
		c-11.165,13.747-25.965,32.686-25.95,51.386c0.017,21.91,24.774,29.098,30.245,48.239c5.446,19.057-9.466,37.887-7.095,57.501
		c3.356,27.756,39.349,29.552,60.64,22.818c10.25-3.241,18.895-10.854,29.193-12.857c10.133-1.97,22.217,2.006,31.963,4.329
		c17.719,4.225,35.605,12.513,53.344,14.899c15.856,2.134,30.175-9.836,44.34-15.15c13.981-5.244,26.78-9.066,42.223-9.059
		L330.33,383.692z"/>
</g>
<path style="fill:#C1C3C3;" d="M302.386,301.671c-37.821,0-69.974,9.246-81.774,22.132c-19.313-5.151-46.658-9.938-77.161-13.082
	c-59.625-6.147-108.729-3.697-109.674,5.472c-0.945,9.169,46.626,21.582,106.251,27.729c32.281,3.328,61.474,4.136,81.616,2.723
	c12.563,12.325,43.976,21.061,80.741,21.061c47.828,0,86.603-14.781,86.603-33.016C388.989,316.454,350.214,301.671,302.386,301.671
	z"/>
<g>
	<g>
		<path style="fill:#E6E7E8;" d="M166.375,267.048c2.477,29.241,4.611,54.797,4.611,57.555c0,8.47,17.523,15.335,39.139,15.335
			s39.139-6.865,39.139-15.335c0-2.758,2.134-28.314,4.611-57.555H166.375z"/>
		<path style="fill:#C02D33;" d="M267.266,147.19c0-9.443-25.582-17.097-57.141-17.097c-31.558,0-57.141,7.654-57.141,17.097
			c0,7.851,13.498,159.324,13.498,166.65c0,9.444,19.539,17.097,43.643,17.097s43.645-7.652,43.645-17.097
			C253.77,306.515,267.266,155.041,267.266,147.19z"/>
		<path style="fill:#D1BCC7;" d="M209.294,275.899c-16.801-22.096-22.453-55.18-22.401-82.312
			c0.042-21.103,2.981-42.268,8.335-62.887c-24.322,1.964-42.245,8.593-42.245,16.49c0,7.851,13.498,159.324,13.498,166.65
			c0,9.444,19.539,17.097,43.643,17.097s43.645-7.652,43.645-17.097c0-0.591,0.088-2.141,0.251-4.467
			C236.109,304.441,219.768,289.675,209.294,275.899z"/>
		<path style="fill:#D1BCC7;" d="M200.152,307.273c-20.806-19.992-29.097-51.545-32.28-79.357
			c-3.577-31.261-0.233-63.636,8.504-94.487c-14.163,3.107-23.392,8.104-23.392,13.762c0,7.851,13.498,159.324,13.498,166.65
			c0,9.444,19.539,17.097,43.643,17.097c11.665,0,22.234-1.802,30.066-4.724C225.345,323.415,211.278,317.966,200.152,307.273z"/>
		<path style="fill:#DEDFE0;" d="M270.641,147.19c0,10-27.095,18.107-60.517,18.107c-33.421,0-60.515-8.107-60.515-18.107
			c0-2.073,0-17.097,0-17.097s34.018-1.009,60.515-1.009c26.958,0,60.517,1.009,60.517,1.009S270.641,145.256,270.641,147.19z"/>
		<path style="fill:#FFFFFF;" d="M270.641,130.093c0,10.001-27.095,18.108-60.517,18.108c-33.421,0-60.515-8.107-60.515-18.108
			c0-9.999,27.094-18.106,60.515-18.106C243.546,111.987,270.641,120.094,270.641,130.093z"/>
		<path style="fill:none;stroke:#DADBDC;stroke-width:2.6996;stroke-miterlimit:10;" d="M261.529,130.093
			c0,8.497-23.014,15.382-51.404,15.382c-28.39,0-51.403-6.885-51.403-15.382c0-8.495,23.013-15.38,51.403-15.38
			C238.515,114.713,261.529,121.599,261.529,130.093z"/>
		<path style="fill:#DADBDC;" d="M227.109,130.093c0,2.808-7.604,5.083-16.985,5.083c-9.38,0-16.987-2.275-16.987-5.083
			c0-2.806,7.607-5.081,16.987-5.081C219.505,125.013,227.109,127.287,227.109,130.093z"/>
		<path style="fill:#C4C6C8;" d="M210.124,127.711c7.817,0,14.382,1.582,16.36,3.732c0.397-0.43,0.625-0.882,0.625-1.35
			c0-2.806-7.604-5.081-16.985-5.081c-9.38,0-16.987,2.274-16.987,5.081c0,0.468,0.23,0.92,0.627,1.35
			C195.743,129.294,202.309,127.711,210.124,127.711z"/>
		<path style="fill:#FFFFFF;" d="M217.492,71.883c0-1.496-3.298-2.709-7.368-2.709c-4.07,0-7.368,1.212-7.368,2.709
			c0,1.303,0,56.907,0,58.21c0,1.497,3.298,2.709,7.368,2.709c4.07,0,7.368-1.212,7.368-2.709
			C217.492,128.79,217.492,73.187,217.492,71.883z"/>
		<path style="fill:#DE2F35;" d="M250.17,301.242c-9.963-8.785-22.233-14.674-30.57-25.393
			c-26.462-34.019-28.006-97.675-23.396-101.258c5.315-4.129,15.11-1.729,21.572-2.029c12.747-0.594,32.188,1.878,43.753-2.807
			C262.562,179.292,250.17,301.242,250.17,301.242z"/>
		<g>
			<path style="fill:none;" d="M212.656,69.348v63.281c0.811-0.11,1.544-0.271,2.193-0.471V69.821
				C214.2,69.619,213.467,69.458,212.656,69.348z"/>
			<path style="fill:none;" d="M216.198,70.353v61.272c0.816-0.436,1.294-0.962,1.294-1.531c0-1.303,0-56.907,0-58.21
				C217.492,71.315,217.014,70.789,216.198,70.353z"/>
			<path style="fill:none;" d="M205.401,69.821v62.337c0.692,0.212,1.485,0.379,2.361,0.489V69.33
				C206.886,69.44,206.093,69.606,205.401,69.821z"/>
			<path style="fill:none;" d="M210.124,69.175c-0.348,0-0.678,0.02-1.013,0.038v63.554c0.335,0.015,0.665,0.036,1.013,0.036
				c0.404,0,0.795-0.021,1.182-0.042V69.218C210.919,69.196,210.528,69.175,210.124,69.175z"/>
			<path style="fill:none;" d="M202.757,71.883c0,1.303,0,56.907,0,58.21c0,0.569,0.48,1.095,1.295,1.531V70.353
				C203.237,70.789,202.757,71.315,202.757,71.883z"/>
			<path style="fill:#DE2F35;" d="M204.052,70.353v61.272c0.376,0.203,0.84,0.375,1.35,0.534V69.821
				C204.892,69.977,204.427,70.15,204.052,70.353z"/>
			<path style="fill:#DE2F35;" d="M207.763,69.33v63.318c0.434,0.056,0.883,0.095,1.349,0.119V69.213
				C208.645,69.237,208.197,69.276,207.763,69.33z"/>
			<path style="fill:#DE2F35;" d="M214.849,69.821v62.337c0.509-0.159,0.973-0.332,1.349-0.534V70.353
				C215.822,70.15,215.358,69.977,214.849,69.821z"/>
			<path style="fill:#DE2F35;" d="M211.307,69.218v63.543c0.466-0.027,0.915-0.072,1.349-0.131V69.348
				C212.222,69.291,211.773,69.247,211.307,69.218z"/>
		</g>
		<path style="fill:#C0C2C4;" d="M207.521,115.404c-1.476-9.835,0.188-18.689,0.358-28.52c0.101-5.918,0.09-11.814,0.753-17.652
			c-3.353,0.254-5.875,1.344-5.875,2.651v58.21c0,1.497,3.298,2.709,7.368,2.709c4.07,0,7.368-1.212,7.368-2.709v-1.772
			C212.408,125.649,208.391,121.195,207.521,115.404z"/>
	</g>
	<g>
		<path style="fill:#D58621;" d="M171.068,203.931c-12.161-6.038-8.184-4.445-44.116-9.53c-30.529-4.321-38.163-6.902-38.163-6.902
			L68.742,160.69c0,0,25.739-11.972,65.016-3.46c39.894,8.649,55.029,28.829,55.029,28.829S175.442,201.894,171.068,203.931z"/>
		<path style="fill:#C9751F;" d="M166.654,201.335c-10.889-5.406-7.329-3.981-39.512-8.536c-27.348-3.87-34.184-6.182-34.184-6.182
			l-17.956-24.014c0,0,23.054-10.723,58.232-3.099c35.736,7.747,49.29,25.822,49.29,25.822S170.576,199.514,166.654,201.335z"/>
		<g>
			<path style="fill:#FFDF9B;" d="M73.63,172.723c0.303-3.088-2.221-10.517,4.239-12.105c3.229-0.793,7.194-2.004,9.43-4.727
				c2.576-3.138,3.743-5.595,7.932-6.779c8.772-2.479,22.406,2.766,23.374,12.779c0.433,4.49-2.518,7.374-5.302,10.363
				c-1.545,1.658-3.512,3.251-4.562,5.29c-1.156,2.236-0.879,4.921-1.545,7.332c-2.478,8.962-14.115,12.376-20.569,5.466
				c-2.76-2.956-1.73-5.696-5.887-6.956c-2.697-0.819-6.41,0.633-8.371-2.039C70.406,178.675,73.329,175.808,73.63,172.723z"/>
			<path style="opacity:0.5;fill:#FFFFFF;" d="M78.043,168.828c0.22-2.248-1.618-7.661,3.088-8.817
				c2.352-0.58,5.196-1.905,6.822-3.891c1.877-2.284,3.104-4.774,6.156-5.637c6.388-1.805,16.844-0.52,17.55,6.778
				c0.316,3.268,0.319,6.764-4.42,9.708c-1.401,0.872-2.854,3.885-3.621,5.372c-0.841,1.63-0.64,3.584-1.125,5.338
				c-1.804,6.531-10.282,9.017-14.984,3.985c-2.011-2.153-1.26-4.149-4.288-5.066c-1.965-0.599-4.668,0.461-6.097-1.487
				C75.695,173.163,77.821,171.076,78.043,168.828z"/>
			<g>
				<path style="fill:#E7B57C;" d="M73.405,166.799c-0.054,1.62,0.158,3.266,0.229,4.583
					C73.725,170.244,73.467,168.56,73.405,166.799z"/>
				<path style="fill:#E7B57C;" d="M113.303,171.015c-1.545,1.658-3.512,3.251-4.562,5.291c-1.156,2.236-0.879,4.918-1.545,7.331
					c-2.478,8.962-14.115,12.376-20.569,5.467c-2.76-2.956-1.73-5.695-5.887-6.954c-2.697-0.819-6.41,0.63-8.371-2.041
					c-0.346-0.473-0.535-0.951-0.618-1.434c-0.136,0.912-0.021,1.804,0.618,2.674c1.961,2.672,5.673,1.22,8.371,2.039
					c4.156,1.26,3.126,4.001,5.887,6.956c6.454,6.909,18.091,3.496,20.569-5.466c0.666-2.41,0.389-5.095,1.545-7.332
					c1.05-2.039,3.017-3.632,4.562-5.29c2.724-2.926,5.599-5.755,5.316-10.082C118.342,165.821,115.76,168.377,113.303,171.015z"/>
			</g>
			<g>
				<path style="fill:#E7B57C;" d="M83.48,167.355c-0.874,0-0.874,1.358,0,1.358C84.356,168.713,84.356,167.355,83.48,167.355z"/>
				<path style="fill:#E7B57C;" d="M82.85,170.631c-0.021-0.103-0.071-0.171-0.134-0.252c-0.146-0.173-0.485-0.173-0.629,0
					c-0.066,0.081-0.114,0.149-0.133,0.252c-0.065,0.294,0.13,0.588,0.446,0.588C82.718,171.219,82.912,170.925,82.85,170.631z"/>
				<path style="fill:#E7B57C;" d="M83.98,171.52c-0.543,0-0.543,0.841,0,0.841C84.522,172.36,84.522,171.52,83.98,171.52z"/>
				<path style="fill:#E7B57C;" d="M85.476,169.134c-0.617,0-0.617,0.959,0,0.959C86.093,170.093,86.093,169.134,85.476,169.134z"/>
				<path style="fill:#E7B57C;" d="M86.972,171.721c-0.498,0-0.498,0.769,0,0.769C87.469,172.49,87.469,171.721,86.972,171.721z"/>
				<path style="fill:#E7B57C;" d="M85.643,176.736c-0.032,0-0.032,0.049,0,0.049C85.676,176.785,85.676,176.736,85.643,176.736z"/>
				<path style="fill:#E7B57C;" d="M84.728,175.98c-0.363,0-0.363,0.561,0,0.561C85.089,176.541,85.089,175.98,84.728,175.98z"/>
				<path style="fill:#E7B57C;" d="M82.649,174.815c-0.255,0-0.255,0.398,0,0.398C82.906,175.214,82.906,174.815,82.649,174.815z"/>
				<path style="fill:#E7B57C;" d="M79.825,170.829c-0.635,0-0.635,0.986,0,0.986C80.461,171.815,80.461,170.829,79.825,170.829z"/>
				<path style="fill:#E7B57C;" d="M78.245,167.909c-0.482,0-0.482,0.748,0,0.748C78.728,168.657,78.728,167.909,78.245,167.909z"/>
				<path style="fill:#E7B57C;" d="M85.276,166.465c-0.014-0.002-0.029-0.004-0.042-0.007c-0.044-0.017-0.098-0.026-0.165-0.014
					c-0.005,0.002-0.013,0.004-0.02,0.005c-0.148,0.028-0.199,0.141-0.186,0.255c-0.013,0.113,0.038,0.227,0.186,0.255
					c0.006,0.003,0.015,0.003,0.02,0.003c0.067,0.014,0.121,0.004,0.165-0.013c0.013-0.003,0.027-0.003,0.042-0.008
					C85.513,166.897,85.513,166.512,85.276,166.465z"/>
				<path style="fill:#E7B57C;" d="M88.386,176.4c-0.574,0-0.574,0.886,0,0.886C88.957,177.286,88.957,176.4,88.386,176.4z"/>
				<path style="fill:#E7B57C;" d="M79.409,178.286c-0.604,0-0.604,0.936,0,0.936C80.011,179.222,80.011,178.286,79.409,178.286z"/>
				<path style="fill:#E7B57C;" d="M77.082,176.471c-0.588,0-0.588,0.91,0,0.91C77.668,177.381,77.668,176.471,77.082,176.471z"/>
				<path style="fill:#E7B57C;" d="M79.741,176.27c-0.633,0-0.633,0.981,0,0.981S80.374,176.27,79.741,176.27z"/>
				<path style="fill:#E7B57C;" d="M78.579,174.322c-0.681,0-0.681,1.052,0,1.052C79.255,175.374,79.255,174.322,78.579,174.322z"/>
				<path style="fill:#E7B57C;" d="M76.75,174.067c-0.257,0-0.257,0.399,0,0.399C77.005,174.466,77.005,174.067,76.75,174.067z"/>
				<path style="fill:#E7B57C;" d="M75.255,172.956c-0.514,0-0.514,0.796,0,0.796C75.766,173.752,75.766,172.956,75.255,172.956z"/>
				<path style="fill:#E7B57C;" d="M74.174,175.153c-0.573,0-0.573,0.886,0,0.886C74.746,176.04,74.746,175.153,74.174,175.153z"/>
			</g>
			<g>
				<path style="fill:#E7B57C;" d="M100.134,152.255c-0.873,0-0.873,1.355,0,1.355C101.008,153.61,101.008,152.255,100.134,152.255z
					"/>
				<path style="fill:#E7B57C;" d="M99.503,155.529c-0.022-0.102-0.069-0.17-0.134-0.249c-0.145-0.177-0.484-0.177-0.629,0
					c-0.066,0.08-0.115,0.148-0.136,0.249c-0.063,0.296,0.134,0.591,0.451,0.591C99.372,156.12,99.565,155.825,99.503,155.529z"/>
				<path style="fill:#E7B57C;" d="M100.632,156.419c-0.54,0-0.54,0.842,0,0.842C101.176,157.261,101.176,156.419,100.632,156.419z"
					/>
				<path style="fill:#E7B57C;" d="M102.128,154.033c-0.617,0-0.617,0.96,0,0.96C102.747,154.993,102.747,154.033,102.128,154.033z"
					/>
				<path style="fill:#E7B57C;" d="M103.624,156.621c-0.497,0-0.497,0.77,0,0.77C104.123,157.391,104.123,156.621,103.624,156.621z"
					/>
				<path style="fill:#E7B57C;" d="M102.293,161.636c-0.031,0-0.031,0.051,0,0.051C102.327,161.686,102.327,161.636,102.293,161.636
					z"/>
				<path style="fill:#E7B57C;" d="M101.381,160.882c-0.364,0-0.364,0.56,0,0.56C101.743,161.441,101.743,160.882,101.381,160.882z"
					/>
				<path style="fill:#E7B57C;" d="M99.303,159.715c-0.257,0-0.257,0.398,0,0.398C99.559,160.113,99.559,159.715,99.303,159.715z"/>
				<path style="fill:#E7B57C;" d="M96.477,155.73c-0.633,0-0.633,0.986,0,0.986C97.114,156.715,97.114,155.73,96.477,155.73z"/>
				<path style="fill:#E7B57C;" d="M94.898,152.809c-0.481,0-0.481,0.748,0,0.748C95.381,153.557,95.381,152.809,94.898,152.809z"/>
				<path style="fill:#E7B57C;" d="M101.928,151.366c-0.014-0.004-0.026-0.005-0.039-0.009c-0.047-0.017-0.099-0.025-0.165-0.012
					c-0.008,0-0.016,0.001-0.021,0.003c-0.147,0.028-0.199,0.141-0.187,0.255c-0.012,0.113,0.039,0.226,0.187,0.254
					c0.005,0.003,0.013,0.003,0.021,0.004c0.065,0.013,0.117,0.005,0.165-0.012c0.013-0.004,0.025-0.004,0.039-0.009
					C102.166,151.798,102.166,151.41,101.928,151.366z"/>
				<path style="fill:#E7B57C;" d="M105.038,161.299c-0.573,0-0.573,0.887,0,0.887C105.609,162.186,105.609,161.299,105.038,161.299
					z"/>
				<path style="fill:#E7B57C;" d="M96.062,163.186c-0.603,0-0.603,0.936,0,0.936C96.664,164.122,96.664,163.186,96.062,163.186z"/>
				<path style="fill:#E7B57C;" d="M93.735,161.37c-0.587,0-0.587,0.912,0,0.912C94.323,162.282,94.323,161.37,93.735,161.37z"/>
				<path style="fill:#E7B57C;" d="M96.394,161.168c-0.633,0-0.633,0.981,0,0.981C97.025,162.149,97.025,161.168,96.394,161.168z"/>
				<path style="fill:#E7B57C;" d="M95.23,159.222c-0.678,0-0.678,1.052,0,1.052C95.907,160.274,95.907,159.222,95.23,159.222z"/>
				<path style="fill:#E7B57C;" d="M93.403,158.967c-0.258,0-0.258,0.398,0,0.398C93.66,159.365,93.66,158.967,93.403,158.967z"/>
				<path style="fill:#E7B57C;" d="M91.905,157.854c-0.513,0-0.513,0.795,0,0.795C92.419,158.648,92.419,157.854,91.905,157.854z"/>
				<path style="fill:#E7B57C;" d="M90.827,160.053c-0.574,0-0.574,0.887,0,0.887C91.399,160.939,91.399,160.053,90.827,160.053z"/>
			</g>
			<g>
				<path style="fill:#E7B57C;" d="M102.336,166.461c-0.874,0-0.874,1.355,0,1.355C103.21,167.816,103.21,166.461,102.336,166.461z"
					/>
				<path style="fill:#E7B57C;" d="M101.705,169.735c-0.021-0.104-0.068-0.172-0.135-0.253c-0.143-0.174-0.483-0.174-0.628,0
					c-0.065,0.081-0.111,0.149-0.133,0.253c-0.063,0.293,0.132,0.589,0.448,0.589C101.573,170.324,101.769,170.029,101.705,169.735z
					"/>
				<path style="fill:#E7B57C;" d="M102.837,170.624c-0.545,0-0.545,0.841,0,0.841C103.377,171.464,103.377,170.624,102.837,170.624
					z"/>
				<path style="fill:#E7B57C;" d="M104.33,168.238c-0.617,0-0.617,0.96,0,0.96S104.947,168.238,104.33,168.238z"/>
				<path style="fill:#E7B57C;" d="M105.826,170.823c-0.495,0-0.495,0.772,0,0.772C106.324,171.596,106.324,170.823,105.826,170.823
					z"/>
				<path style="fill:#E7B57C;" d="M104.498,175.841c-0.033,0-0.033,0.05,0,0.05C104.531,175.891,104.531,175.841,104.498,175.841z"
					/>
				<path style="fill:#E7B57C;" d="M103.584,175.085c-0.361,0-0.361,0.561,0,0.561C103.945,175.646,103.945,175.085,103.584,175.085
					z"/>
				<path style="fill:#E7B57C;" d="M101.505,173.92c-0.256,0-0.256,0.399,0,0.399C101.762,174.319,101.762,173.92,101.505,173.92z"
					/>
				<path style="fill:#E7B57C;" d="M98.682,169.936c-0.635,0-0.635,0.985,0,0.985C99.317,170.92,99.317,169.936,98.682,169.936z"/>
				<path style="fill:#E7B57C;" d="M97.099,167.014c-0.48,0-0.48,0.748,0,0.748C97.582,167.762,97.582,167.014,97.099,167.014z"/>
				<path style="fill:#E7B57C;" d="M104.131,165.569c-0.013-0.002-0.027-0.005-0.041-0.006c-0.046-0.017-0.099-0.025-0.163-0.014
					c-0.007,0.003-0.017,0.004-0.024,0.006c-0.146,0.027-0.197,0.14-0.183,0.254c-0.015,0.114,0.037,0.226,0.183,0.254
					c0.008,0.001,0.018,0.001,0.024,0.004c0.064,0.014,0.116,0.004,0.163-0.012c0.013-0.004,0.028-0.006,0.041-0.01
					C104.369,166.001,104.369,165.617,104.131,165.569z"/>
				<path style="fill:#E7B57C;" d="M107.239,175.505c-0.571,0-0.571,0.886,0,0.886C107.812,176.391,107.812,175.505,107.239,175.505
					z"/>
				<path style="fill:#E7B57C;" d="M98.265,177.392c-0.604,0-0.604,0.935,0,0.935C98.867,178.327,98.867,177.392,98.265,177.392z"/>
				<path style="fill:#E7B57C;" d="M95.938,175.573c-0.587,0-0.587,0.913,0,0.913C96.525,176.486,96.525,175.573,95.938,175.573z"/>
				<path style="fill:#E7B57C;" d="M98.597,175.373c-0.631,0-0.631,0.983,0,0.983C99.23,176.355,99.23,175.373,98.597,175.373z"/>
				<path style="fill:#E7B57C;" d="M97.435,173.427c-0.679,0-0.679,1.052,0,1.052C98.111,174.479,98.111,173.427,97.435,173.427z"/>
				<path style="fill:#E7B57C;" d="M95.605,173.171c-0.256,0-0.256,0.4,0,0.4C95.862,173.571,95.862,173.171,95.605,173.171z"/>
				<path style="fill:#E7B57C;" d="M94.109,172.059c-0.514,0-0.514,0.795,0,0.795C94.623,172.854,94.623,172.059,94.109,172.059z"/>
				<path style="fill:#E7B57C;" d="M93.028,174.258c-0.573,0-0.573,0.887,0,0.887C93.604,175.145,93.604,174.258,93.028,174.258z"/>
			</g>
		</g>
		<g>
			<path style="fill:#FFDF9B;" d="M152.492,183.667c0.26-2.635-1.893-8.974,3.618-10.328c2.756-0.677,6.139-1.711,8.048-4.036
				c2.197-2.677,3.193-4.773,6.767-5.785c7.486-2.115,19.121,2.359,19.946,10.906c0.37,3.832-2.147,6.292-4.524,8.843
				c-1.318,1.415-2.994,2.775-3.895,4.514c-0.985,1.908-0.749,4.2-1.317,6.255c-2.113,7.65-12.045,10.564-17.554,4.667
				c-2.356-2.521-1.475-4.859-5.021-5.936c-2.301-0.699-5.469,0.541-7.143-1.741C149.743,188.747,152.234,186.301,152.492,183.667z"
				/>
			<path style="opacity:0.5;fill:#FFFFFF;" d="M156.259,180.344c0.186-1.918-1.381-6.538,2.633-7.524
				c2.009-0.494,4.434-1.627,5.823-3.319c1.601-1.949,2.647-4.074,5.253-4.811c5.45-1.541,14.375-0.442,14.977,5.783
				c0.27,2.79,0.273,5.774-3.771,8.285c-1.196,0.745-2.436,3.316-3.09,4.585c-0.718,1.391-0.545,3.059-0.96,4.558
				c-1.539,5.571-8.773,7.693-12.787,3.4c-1.715-1.839-1.075-3.543-3.657-4.326c-1.68-0.508-3.987,0.394-5.206-1.269
				C154.253,184.045,156.069,182.263,156.259,180.344z"/>
			<g>
				<path style="fill:#E7B57C;" d="M152.301,178.612c-0.047,1.382,0.134,2.787,0.196,3.912
					C152.573,181.552,152.354,180.117,152.301,178.612z"/>
				<path style="fill:#E7B57C;" d="M186.347,182.21c-1.318,1.415-2.994,2.775-3.895,4.515c-0.985,1.909-0.749,4.197-1.317,6.254
					c-2.113,7.648-12.045,10.561-17.554,4.666c-2.356-2.523-1.475-4.861-5.021-5.935c-2.301-0.699-5.469,0.539-7.143-1.742
					c-0.297-0.402-0.458-0.812-0.529-1.223c-0.117,0.778-0.016,1.54,0.529,2.282c1.674,2.282,4.842,1.042,7.143,1.741
					c3.546,1.077,2.665,3.415,5.021,5.936c5.509,5.897,15.44,2.983,17.554-4.667c0.568-2.056,0.332-4.347,1.317-6.255
					c0.9-1.739,2.576-3.099,3.895-4.514c2.325-2.498,4.78-4.911,4.536-8.603C190.648,177.778,188.443,179.961,186.347,182.21z"/>
			</g>
			<g>
				<path style="fill:#E7B57C;" d="M160.898,179.087c-0.744,0-0.744,1.159,0,1.159C161.644,180.246,161.644,179.087,160.898,179.087
					z"/>
				<path style="fill:#E7B57C;" d="M160.36,181.883c-0.02-0.089-0.059-0.147-0.115-0.215c-0.124-0.148-0.413-0.148-0.537,0
					c-0.056,0.067-0.097,0.126-0.114,0.215c-0.052,0.249,0.112,0.503,0.38,0.503C160.246,182.386,160.414,182.132,160.36,181.883z"
					/>
				<path style="fill:#E7B57C;" d="M161.324,182.642c-0.462,0-0.462,0.718,0,0.718C161.788,183.359,161.788,182.642,161.324,182.642
					z"/>
				<path style="fill:#E7B57C;" d="M162.599,180.604c-0.525,0-0.525,0.819,0,0.819C163.128,181.423,163.128,180.604,162.599,180.604
					z"/>
				<path style="fill:#E7B57C;" d="M163.878,182.814c-0.425,0-0.425,0.656,0,0.656C164.302,183.47,164.302,182.814,163.878,182.814z
					"/>
				<path style="fill:#E7B57C;" d="M162.744,187.092c-0.027,0-0.027,0.042,0,0.042C162.77,187.134,162.77,187.092,162.744,187.092z"
					/>
				<path style="fill:#E7B57C;" d="M161.963,186.449c-0.308,0-0.308,0.477,0,0.477C162.27,186.926,162.27,186.449,161.963,186.449z"
					/>
				<path style="fill:#E7B57C;" d="M160.191,185.454c-0.22,0-0.22,0.339,0,0.339C160.408,185.794,160.408,185.454,160.191,185.454z"
					/>
				<path style="fill:#E7B57C;" d="M157.78,182.054c-0.542,0-0.542,0.84,0,0.84S158.322,182.054,157.78,182.054z"/>
				<path style="fill:#E7B57C;" d="M156.431,179.56c-0.413,0-0.413,0.639,0,0.639C156.841,180.198,156.841,179.56,156.431,179.56z"
					/>
				<path style="fill:#E7B57C;" d="M162.429,178.327c-0.01,0-0.023-0.003-0.033-0.004c-0.039-0.016-0.084-0.022-0.14-0.013
					c-0.006,0.002-0.013,0.004-0.018,0.004c-0.126,0.025-0.169,0.122-0.158,0.217c-0.011,0.096,0.032,0.195,0.158,0.218
					c0.004,0.001,0.012,0.004,0.018,0.004c0.056,0.012,0.101,0.003,0.14-0.012c0.01-0.001,0.023-0.003,0.033-0.006
					C162.632,178.697,162.632,178.367,162.429,178.327z"/>
				<path style="fill:#E7B57C;" d="M165.082,186.806c-0.488,0-0.488,0.758,0,0.758C165.573,187.564,165.573,186.806,165.082,186.806
					z"/>
				<path style="fill:#E7B57C;" d="M157.423,188.415c-0.514,0-0.514,0.8,0,0.8C157.938,189.215,157.938,188.415,157.423,188.415z"/>
				<path style="fill:#E7B57C;" d="M155.439,186.866c-0.501,0-0.501,0.778,0,0.778C155.939,187.644,155.939,186.866,155.439,186.866
					z"/>
				<path style="fill:#E7B57C;" d="M157.707,186.694c-0.541,0-0.541,0.838,0,0.838C158.246,187.533,158.246,186.694,157.707,186.694
					z"/>
				<path style="fill:#E7B57C;" d="M156.714,185.033c-0.577,0-0.577,0.898,0,0.898C157.293,185.931,157.293,185.033,156.714,185.033
					z"/>
				<path style="fill:#E7B57C;" d="M155.155,184.816c-0.22,0-0.22,0.337,0,0.337C155.372,185.154,155.372,184.816,155.155,184.816z"
					/>
				<path style="fill:#E7B57C;" d="M153.878,183.867c-0.439,0-0.439,0.68,0,0.68C154.314,184.546,154.314,183.867,153.878,183.867z"
					/>
				<path style="fill:#E7B57C;" d="M152.956,185.741c-0.49,0-0.49,0.757,0,0.757C153.444,186.498,153.444,185.741,152.956,185.741z"
					/>
			</g>
			<g>
				<path style="fill:#E7B57C;" d="M175.11,166.202c-0.746,0-0.746,1.156,0,1.156C175.855,167.358,175.855,166.202,175.11,166.202z"
					/>
				<path style="fill:#E7B57C;" d="M174.572,168.997c-0.02-0.089-0.061-0.148-0.116-0.215c-0.123-0.148-0.414-0.148-0.537,0
					c-0.055,0.067-0.097,0.126-0.114,0.215c-0.054,0.251,0.114,0.503,0.382,0.503C174.459,169.5,174.622,169.248,174.572,168.997z"
					/>
				<path style="fill:#E7B57C;" d="M175.537,169.755c-0.464,0-0.464,0.717,0,0.717C175.998,170.472,175.998,169.755,175.537,169.755
					z"/>
				<path style="fill:#E7B57C;" d="M176.811,167.718c-0.527,0-0.527,0.819,0,0.819C177.339,168.537,177.339,167.718,176.811,167.718
					z"/>
				<path style="fill:#E7B57C;" d="M178.09,169.927c-0.427,0-0.427,0.658,0,0.658C178.513,170.585,178.513,169.927,178.09,169.927z"
					/>
				<path style="fill:#E7B57C;" d="M176.954,174.205c-0.026,0-0.026,0.045,0,0.045C176.982,174.25,176.982,174.205,176.954,174.205z
					"/>
				<path style="fill:#E7B57C;" d="M176.175,173.564c-0.311,0-0.311,0.476,0,0.476C176.482,174.04,176.482,173.564,176.175,173.564z
					"/>
				<path style="fill:#E7B57C;" d="M174.401,172.567c-0.219,0-0.219,0.339,0,0.339C174.619,172.906,174.619,172.567,174.401,172.567
					z"/>
				<path style="fill:#E7B57C;" d="M171.989,169.167c-0.541,0-0.541,0.838,0,0.838C172.533,170.005,172.533,169.167,171.989,169.167
					z"/>
				<path style="fill:#E7B57C;" d="M170.643,166.674c-0.414,0-0.414,0.638,0,0.638C171.053,167.312,171.053,166.674,170.643,166.674
					z"/>
				<path style="fill:#E7B57C;" d="M176.641,165.442c-0.012-0.001-0.022-0.005-0.034-0.006c-0.04-0.015-0.085-0.021-0.142-0.01
					c-0.006,0-0.009,0.002-0.017,0.003c-0.126,0.024-0.167,0.12-0.159,0.216c-0.008,0.096,0.033,0.194,0.159,0.218
					c0.008,0.002,0.011,0.002,0.017,0.004c0.057,0.011,0.102,0.002,0.142-0.01c0.011-0.004,0.022-0.005,0.034-0.009
					C176.844,165.809,176.844,165.48,176.641,165.442z"/>
				<path style="fill:#E7B57C;" d="M179.294,173.919c-0.488,0-0.488,0.758,0,0.758C179.781,174.677,179.781,173.919,179.294,173.919
					z"/>
				<path style="fill:#E7B57C;" d="M171.634,175.53c-0.514,0-0.514,0.797,0,0.797C172.149,176.327,172.149,175.53,171.634,175.53z"
					/>
				<path style="fill:#E7B57C;" d="M169.648,173.981c-0.501,0-0.501,0.777,0,0.777C170.151,174.758,170.151,173.981,169.648,173.981
					z"/>
				<path style="fill:#E7B57C;" d="M171.919,173.808c-0.542,0-0.542,0.839,0,0.839C172.458,174.647,172.458,173.808,171.919,173.808
					z"/>
				<path style="fill:#E7B57C;" d="M170.925,172.146c-0.579,0-0.579,0.898,0,0.898C171.504,173.044,171.504,172.146,170.925,172.146
					z"/>
				<path style="fill:#E7B57C;" d="M169.364,171.929c-0.219,0-0.219,0.34,0,0.34C169.585,172.269,169.585,171.929,169.364,171.929z"
					/>
				<path style="fill:#E7B57C;" d="M168.09,170.979c-0.439,0-0.439,0.68,0,0.68C168.526,171.658,168.526,170.979,168.09,170.979z"/>
				<path style="fill:#E7B57C;" d="M167.168,172.857c-0.49,0-0.49,0.758,0,0.758C167.655,173.614,167.655,172.857,167.168,172.857z"
					/>
			</g>
			<g>
				<path style="fill:#E7B57C;" d="M176.989,178.324c-0.745,0-0.745,1.157,0,1.157C177.735,179.481,177.735,178.324,176.989,178.324
					z"/>
				<path style="fill:#E7B57C;" d="M176.452,181.12c-0.02-0.088-0.061-0.148-0.117-0.217c-0.123-0.148-0.411-0.148-0.538,0
					c-0.055,0.069-0.094,0.129-0.112,0.217c-0.055,0.25,0.112,0.501,0.384,0.501C176.338,181.62,176.504,181.369,176.452,181.12z"/>
				<path style="fill:#E7B57C;" d="M177.416,181.876c-0.466,0-0.466,0.719,0,0.719C177.878,182.596,177.878,181.876,177.416,181.876
					z"/>
				<path style="fill:#E7B57C;" d="M178.691,179.84c-0.527,0-0.527,0.818,0,0.818C179.217,180.659,179.217,179.84,178.691,179.84z"
					/>
				<path style="fill:#E7B57C;" d="M179.969,182.048c-0.425,0-0.425,0.658,0,0.658C180.392,182.707,180.392,182.048,179.969,182.048
					z"/>
				<path style="fill:#E7B57C;" d="M178.835,186.328c-0.028,0-0.028,0.041,0,0.041C178.861,186.369,178.861,186.328,178.835,186.328
					z"/>
				<path style="fill:#E7B57C;" d="M178.053,185.684c-0.307,0-0.307,0.478,0,0.478C178.362,186.162,178.362,185.684,178.053,185.684
					z"/>
				<path style="fill:#E7B57C;" d="M176.281,184.69c-0.218,0-0.218,0.34,0,0.34C176.501,185.03,176.501,184.69,176.281,184.69z"/>
				<path style="fill:#E7B57C;" d="M173.868,181.29c-0.541,0-0.541,0.839,0,0.839C174.413,182.129,174.413,181.29,173.868,181.29z"
					/>
				<path style="fill:#E7B57C;" d="M172.521,178.796c-0.411,0-0.411,0.638,0,0.638C172.932,179.434,172.932,178.796,172.521,178.796
					z"/>
				<path style="fill:#E7B57C;" d="M178.52,177.564c-0.009-0.001-0.023-0.004-0.034-0.004c-0.039-0.016-0.083-0.021-0.138-0.012
					c-0.006,0-0.013,0.003-0.019,0.003c-0.125,0.026-0.17,0.119-0.156,0.218c-0.014,0.096,0.031,0.193,0.156,0.218
					c0.006,0.001,0.013,0.001,0.019,0.003c0.055,0.01,0.099,0.002,0.138-0.01c0.011-0.003,0.025-0.005,0.034-0.008
					C178.722,177.932,178.722,177.603,178.52,177.564z"/>
				<path style="fill:#E7B57C;" d="M181.174,186.04c-0.488,0-0.488,0.756,0,0.756C181.661,186.797,181.661,186.04,181.174,186.04z"
					/>
				<path style="fill:#E7B57C;" d="M173.515,187.652c-0.516,0-0.516,0.797,0,0.797C174.029,188.449,174.029,187.652,173.515,187.652
					z"/>
				<path style="fill:#E7B57C;" d="M171.528,186.102c-0.501,0-0.501,0.779,0,0.779C172.032,186.88,172.032,186.102,171.528,186.102z
					"/>
				<path style="fill:#E7B57C;" d="M173.796,185.929c-0.537,0-0.537,0.837,0,0.837C174.338,186.767,174.338,185.929,173.796,185.929
					z"/>
				<path style="fill:#E7B57C;" d="M172.805,184.269c-0.578,0-0.578,0.897,0,0.897C173.384,185.167,173.384,184.269,172.805,184.269
					z"/>
				<path style="fill:#E7B57C;" d="M171.245,184.052c-0.218,0-0.218,0.339,0,0.339C171.463,184.391,171.463,184.052,171.245,184.052
					z"/>
				<path style="fill:#E7B57C;" d="M169.969,183.102c-0.438,0-0.438,0.677,0,0.677C170.406,183.779,170.406,183.102,169.969,183.102
					z"/>
				<path style="fill:#E7B57C;" d="M169.045,184.978c-0.489,0-0.489,0.756,0,0.756C169.537,185.734,169.537,184.978,169.045,184.978
					z"/>
			</g>
		</g>
		<g>
			<path style="fill:#FFDF9B;" d="M107.257,152.781c2.182-2.202,4.914-9.559,10.927-6.716c3.005,1.424,6.845,2.985,10.298,2.282
				c3.976-0.807,6.433-1.976,10.429-0.253c8.368,3.61,15.637,16.282,10.068,24.663c-2.496,3.755-6.604,4.132-10.65,4.695
				c-2.246,0.311-4.776,0.306-6.879,1.224c-2.306,1.005-3.784,3.263-5.823,4.712c-7.576,5.39-18.758,0.696-19.407-8.736
				c-0.276-4.036,2.253-5.51-0.177-9.11c-1.577-2.338-5.369-3.553-5.205-6.865C101.002,155.366,105.075,154.986,107.257,152.781z"/>
			<path style="opacity:0.5;fill:#FFFFFF;" d="M113.137,152.544c1.591-1.604,3.58-6.963,7.958-4.893
				c2.191,1.037,5.235,1.8,7.751,1.289c2.896-0.588,5.419-1.746,8.331-0.49c6.095,2.63,13.395,10.227,9.339,16.331
				c-1.817,2.736-4.02,5.452-9.555,4.745c-1.638-0.21-4.666,1.212-6.197,1.882c-1.682,0.732-2.759,2.376-4.245,3.431
				c-5.52,3.926-13.664,0.507-14.138-6.364c-0.2-2.938,1.642-4.014-0.128-6.637c-1.148-1.702-3.913-2.588-3.794-5.002
				C108.581,154.427,111.547,154.15,113.137,152.544z"/>
			<g>
				<path style="fill:#E7B57C;" d="M110.821,148.044c-1.064,1.222-1.939,2.634-2.716,3.702
					C108.895,150.919,109.757,149.452,110.821,148.044z"/>
				<path style="fill:#E7B57C;" d="M139.112,176.489c-2.245,0.313-4.776,0.308-6.879,1.225c-2.307,1.006-3.785,3.263-5.823,4.712
					c-7.576,5.391-18.757,0.696-19.407-8.735c-0.278-4.037,2.251-5.51-0.178-9.111c-1.575-2.338-5.37-3.553-5.207-6.865
					c0.029-0.584,0.186-1.076,0.426-1.502c-0.681,0.621-1.155,1.386-1.206,2.464c-0.164,3.312,3.627,4.527,5.205,6.865
					c2.43,3.6-0.099,5.074,0.177,9.11c0.649,9.433,11.832,14.126,19.407,8.736c2.039-1.449,3.517-3.707,5.823-4.712
					c2.103-0.919,4.633-0.913,6.879-1.224c3.961-0.552,7.975-0.931,10.486-4.469C146.298,175.64,142.682,175.992,139.112,176.489z"
					/>
			</g>
			<g>
				<path style="fill:#E7B57C;" d="M118.285,154.832c-0.677-0.551-1.533,0.504-0.856,1.054
					C118.106,156.439,118.963,155.384,118.285,154.832z"/>
				<path style="fill:#E7B57C;" d="M115.729,156.977c0.047-0.092,0.056-0.177,0.056-0.28c-0.002-0.227-0.266-0.442-0.488-0.396
					c-0.103,0.019-0.185,0.043-0.264,0.109c-0.234,0.186-0.27,0.54-0.024,0.741C115.255,157.351,115.591,157.243,115.729,156.977z"
					/>
				<path style="fill:#E7B57C;" d="M116.044,158.379c-0.421-0.341-0.952,0.311-0.529,0.653
					C115.936,159.374,116.466,158.722,116.044,158.379z"/>
				<path style="fill:#E7B57C;" d="M118.712,157.473c-0.481-0.391-1.085,0.353-0.606,0.742
					C118.583,158.605,119.19,157.862,118.712,157.473z"/>
				<path style="fill:#E7B57C;" d="M118.239,160.423c-0.388-0.314-0.874,0.286-0.487,0.598
					C118.139,161.334,118.626,160.736,118.239,160.423z"/>
				<path style="fill:#E7B57C;" d="M114.044,163.476c-0.024-0.021-0.055,0.016-0.03,0.036
					C114.039,163.531,114.069,163.495,114.044,163.476z"/>
				<path style="fill:#E7B57C;" d="M113.809,162.313c-0.28-0.229-0.633,0.206-0.353,0.434
					C113.736,162.975,114.091,162.54,113.809,162.313z"/>
				<path style="fill:#E7B57C;" d="M112.933,160.096c-0.198-0.161-0.45,0.149-0.25,0.309
					C112.881,160.568,113.133,160.259,112.933,160.096z"/>
				<path style="fill:#E7B57C;" d="M113.257,155.222c-0.491-0.4-1.115,0.367-0.62,0.765
					C113.128,156.388,113.751,155.624,113.257,155.222z"/>
				<path style="fill:#E7B57C;" d="M113.874,151.959c-0.375-0.305-0.847,0.277-0.47,0.581
					C113.776,152.844,114.248,152.262,113.874,151.959z"/>
				<path style="fill:#E7B57C;" d="M120.24,155.275c-0.01-0.009-0.018-0.02-0.029-0.03c-0.022-0.043-0.059-0.083-0.117-0.114
					c-0.006-0.003-0.014-0.007-0.022-0.009c-0.13-0.071-0.241-0.016-0.303,0.081c-0.079,0.079-0.114,0.199-0.018,0.313
					c0.005,0.007,0.01,0.013,0.015,0.017c0.043,0.052,0.089,0.078,0.135,0.093c0.013,0.005,0.024,0.014,0.037,0.019
					C120.15,155.759,120.393,155.461,120.24,155.275z"/>
				<path style="fill:#E7B57C;" d="M116.383,164.944c-0.444-0.361-1.005,0.328-0.559,0.689
					C116.266,165.995,116.828,165.305,116.383,164.944z"/>
				<path style="fill:#E7B57C;" d="M108.229,160.745c-0.468-0.378-1.058,0.345-0.591,0.726
					C108.105,161.852,108.698,161.125,108.229,160.745z"/>
				<path style="fill:#E7B57C;" d="M107.569,157.867c-0.457-0.37-1.03,0.336-0.576,0.708
					C107.448,158.944,108.024,158.239,107.569,157.867z"/>
				<path style="fill:#E7B57C;" d="M109.758,159.39c-0.491-0.399-1.108,0.362-0.618,0.762
					C109.631,160.552,110.25,159.79,109.758,159.39z"/>
				<path style="fill:#E7B57C;" d="M110.086,157.146c-0.526-0.429-1.191,0.387-0.663,0.816
					C109.947,158.389,110.61,157.573,110.086,157.146z"/>
				<path style="fill:#E7B57C;" d="M108.828,155.792c-0.2-0.16-0.451,0.149-0.251,0.31
					C108.775,156.264,109.027,155.955,108.828,155.792z"/>
				<path style="fill:#E7B57C;" d="M108.371,153.986c-0.4-0.323-0.902,0.295-0.503,0.616
					C108.266,154.929,108.768,154.311,108.371,153.986z"/>
				<path style="fill:#E7B57C;" d="M106.145,155.011c-0.446-0.363-1.004,0.327-0.56,0.687
					C106.028,156.059,106.588,155.371,106.145,155.011z"/>
			</g>
			<g>
				<path style="fill:#E7B57C;" d="M140.732,153.627c-0.678-0.55-1.533,0.5-0.855,1.053
					C140.555,155.23,141.41,154.178,140.732,153.627z"/>
				<path style="fill:#E7B57C;" d="M138.178,155.77c0.046-0.092,0.052-0.177,0.052-0.279c-0.002-0.228-0.266-0.443-0.489-0.396
					c-0.101,0.019-0.182,0.042-0.262,0.108c-0.234,0.188-0.269,0.542-0.023,0.741C137.701,156.145,138.04,156.037,138.178,155.77z"
					/>
				<path style="fill:#E7B57C;" d="M138.493,157.172c-0.42-0.343-0.953,0.31-0.531,0.653
					C138.382,158.167,138.913,157.515,138.493,157.172z"/>
				<path style="fill:#E7B57C;" d="M141.159,156.264c-0.479-0.388-1.086,0.355-0.605,0.745
					C141.032,157.4,141.638,156.654,141.159,156.264z"/>
				<path style="fill:#E7B57C;" d="M140.686,159.215c-0.385-0.314-0.873,0.284-0.487,0.599
					C140.585,160.128,141.071,159.529,140.686,159.215z"/>
				<path style="fill:#E7B57C;" d="M136.49,162.267c-0.024-0.02-0.056,0.02-0.033,0.04
					C136.483,162.326,136.515,162.289,136.49,162.267z"/>
				<path style="fill:#E7B57C;" d="M136.258,161.107c-0.282-0.23-0.634,0.204-0.352,0.435
					C136.186,161.769,136.538,161.334,136.258,161.107z"/>
				<path style="fill:#E7B57C;" d="M135.381,158.89c-0.198-0.162-0.448,0.148-0.253,0.309
					C135.329,159.36,135.578,159.052,135.381,158.89z"/>
				<path style="fill:#E7B57C;" d="M135.703,154.017c-0.493-0.401-1.114,0.362-0.622,0.763
					C135.575,155.182,136.196,154.417,135.703,154.017z"/>
				<path style="fill:#E7B57C;" d="M136.322,150.752c-0.376-0.304-0.847,0.276-0.474,0.581
					C136.225,151.638,136.695,151.058,136.322,150.752z"/>
				<path style="fill:#E7B57C;" d="M142.686,154.069c-0.01-0.012-0.017-0.021-0.026-0.033c-0.026-0.04-0.06-0.081-0.12-0.112
					c-0.005-0.004-0.011-0.005-0.02-0.01c-0.13-0.07-0.241-0.015-0.303,0.081c-0.083,0.081-0.114,0.2-0.018,0.316
					c0.004,0.004,0.009,0.009,0.014,0.016c0.042,0.051,0.089,0.078,0.134,0.093c0.013,0.005,0.024,0.013,0.037,0.019
					C142.598,154.554,142.841,154.251,142.686,154.069z"/>
				<path style="fill:#E7B57C;" d="M138.831,163.738c-0.445-0.362-1.004,0.326-0.56,0.689
					C138.714,164.787,139.275,164.099,138.831,163.738z"/>
				<path style="fill:#E7B57C;" d="M130.677,159.538c-0.471-0.383-1.06,0.344-0.592,0.724
					C130.555,160.645,131.145,159.917,130.677,159.538z"/>
				<path style="fill:#E7B57C;" d="M130.016,156.661c-0.458-0.372-1.031,0.337-0.575,0.706
					C129.899,157.738,130.473,157.033,130.016,156.661z"/>
				<path style="fill:#E7B57C;" d="M132.206,158.183c-0.492-0.401-1.11,0.361-0.619,0.76
					C132.078,159.343,132.697,158.582,132.206,158.183z"/>
				<path style="fill:#E7B57C;" d="M132.533,155.937c-0.526-0.428-1.19,0.39-0.665,0.816
					C132.393,157.182,133.059,156.366,132.533,155.937z"/>
				<path style="fill:#E7B57C;" d="M131.274,154.587c-0.2-0.162-0.449,0.146-0.251,0.308
					C131.221,155.057,131.473,154.749,131.274,154.587z"/>
				<path style="fill:#E7B57C;" d="M130.817,152.78c-0.397-0.325-0.9,0.293-0.502,0.616
					C130.713,153.72,131.214,153.102,130.817,152.78z"/>
				<path style="fill:#E7B57C;" d="M128.592,153.803c-0.445-0.361-1.005,0.325-0.561,0.69
					C128.477,154.853,129.035,154.165,128.592,153.803z"/>
			</g>
			<g>
				<path style="fill:#E7B57C;" d="M133.478,166.038c-0.678-0.551-1.531,0.499-0.854,1.05
					C133.302,167.64,134.155,166.59,133.478,166.038z"/>
				<path style="fill:#E7B57C;" d="M130.923,168.181c0.049-0.095,0.055-0.178,0.054-0.282c-0.001-0.227-0.265-0.441-0.486-0.397
					c-0.103,0.022-0.185,0.044-0.266,0.112c-0.233,0.187-0.268,0.54-0.021,0.741C130.449,168.553,130.786,168.446,130.923,168.181z"
					/>
				<path style="fill:#E7B57C;" d="M131.239,169.581c-0.421-0.341-0.952,0.311-0.532,0.654
					C131.129,170.577,131.659,169.923,131.239,169.581z"/>
				<path style="fill:#E7B57C;" d="M133.904,168.674c-0.479-0.391-1.085,0.354-0.605,0.745
					C133.777,169.809,134.383,169.064,133.904,168.674z"/>
				<path style="fill:#E7B57C;" d="M133.431,171.625c-0.383-0.313-0.872,0.285-0.485,0.6
					C133.331,172.539,133.818,171.939,133.431,171.625z"/>
				<path style="fill:#E7B57C;" d="M129.238,174.677c-0.027-0.02-0.057,0.018-0.031,0.038
					C129.23,174.736,129.262,174.698,129.238,174.677z"/>
				<path style="fill:#E7B57C;" d="M129.002,173.515c-0.278-0.226-0.632,0.207-0.352,0.437
					C128.928,174.178,129.283,173.745,129.002,173.515z"/>
				<path style="fill:#E7B57C;" d="M128.126,171.3c-0.197-0.161-0.45,0.147-0.252,0.311
					C128.075,171.772,128.326,171.46,128.126,171.3z"/>
				<path style="fill:#E7B57C;" d="M128.45,166.427c-0.494-0.402-1.114,0.362-0.62,0.764
					C128.321,167.591,128.943,166.828,128.45,166.427z"/>
				<path style="fill:#E7B57C;" d="M129.067,163.163c-0.374-0.304-0.846,0.276-0.473,0.58
					C128.97,164.047,129.441,163.467,129.067,163.163z"/>
				<path style="fill:#E7B57C;" d="M135.433,166.478c-0.011-0.008-0.018-0.021-0.028-0.029c-0.024-0.043-0.061-0.083-0.118-0.114
					c-0.006-0.003-0.014-0.007-0.021-0.011c-0.13-0.069-0.242-0.015-0.304,0.083c-0.081,0.08-0.112,0.2-0.018,0.315
					c0.005,0.007,0.011,0.009,0.015,0.016c0.042,0.051,0.089,0.076,0.133,0.093c0.013,0.006,0.025,0.013,0.038,0.018
					C135.345,166.962,135.586,166.664,135.433,166.478z"/>
				<path style="fill:#E7B57C;" d="M131.576,176.148c-0.444-0.361-1.004,0.326-0.561,0.687
					C131.46,177.197,132.02,176.508,131.576,176.148z"/>
				<path style="fill:#E7B57C;" d="M123.422,171.949c-0.468-0.382-1.058,0.342-0.589,0.724
					C123.3,173.054,123.891,172.329,123.422,171.949z"/>
				<path style="fill:#E7B57C;" d="M122.763,169.068c-0.456-0.369-1.031,0.338-0.574,0.708
					C122.645,170.149,123.22,169.44,122.763,169.068z"/>
				<path style="fill:#E7B57C;" d="M124.952,170.593c-0.488-0.399-1.108,0.363-0.62,0.762
					C124.825,171.753,125.444,170.991,124.952,170.593z"/>
				<path style="fill:#E7B57C;" d="M125.278,168.348c-0.526-0.428-1.19,0.388-0.663,0.815
					C125.142,169.591,125.804,168.774,125.278,168.348z"/>
				<path style="fill:#E7B57C;" d="M124.022,166.996c-0.2-0.161-0.452,0.148-0.252,0.309
					C123.967,167.468,124.221,167.159,124.022,166.996z"/>
				<path style="fill:#E7B57C;" d="M123.562,165.19c-0.397-0.323-0.899,0.292-0.5,0.616
					C123.459,166.128,123.959,165.512,123.562,165.19z"/>
				<path style="fill:#E7B57C;" d="M121.339,166.212c-0.446-0.36-1.006,0.329-0.561,0.689
					C121.223,167.263,121.782,166.575,121.339,166.212z"/>
			</g>
		</g>
		<g>
			<path style="fill:#FFDF9B;" d="M127.939,172.469c2.183-2.203,4.912-9.56,10.926-6.715c3.008,1.422,6.846,2.985,10.298,2.281
				c3.977-0.807,6.433-1.977,10.431-0.253c8.369,3.612,15.638,16.282,10.07,24.662c-2.496,3.757-6.605,4.131-10.651,4.694
				c-2.247,0.313-4.776,0.308-6.878,1.226c-2.309,1.007-3.787,3.262-5.824,4.712c-7.577,5.391-18.758,0.697-19.409-8.737
				c-0.276-4.036,2.252-5.509-0.176-9.109c-1.576-2.339-5.37-3.555-5.206-6.867C121.682,175.054,125.759,174.673,127.939,172.469z"
				/>
			<path style="opacity:0.5;fill:#FFFFFF;" d="M133.821,172.232c1.587-1.605,3.577-6.963,7.957-4.892
				c2.191,1.038,5.232,1.8,7.75,1.29c2.898-0.588,5.418-1.747,8.331-0.491c6.094,2.631,13.395,10.227,9.341,16.333
				c-1.82,2.735-4.023,5.451-9.555,4.744c-1.638-0.208-4.667,1.211-6.199,1.882c-1.682,0.733-2.759,2.376-4.243,3.433
				c-5.52,3.927-13.665,0.507-14.138-6.365c-0.202-2.939,1.642-4.014-0.131-6.637c-1.146-1.705-3.913-2.587-3.79-5.001
				C129.262,174.113,132.23,173.837,133.821,172.232z"/>
			<g>
				<path style="fill:#E7B57C;" d="M131.503,167.733c-1.065,1.221-1.939,2.632-2.714,3.7
					C129.576,170.605,130.44,169.139,131.503,167.733z"/>
				<path style="fill:#E7B57C;" d="M159.794,196.176c-2.245,0.312-4.774,0.308-6.876,1.226c-2.309,1.007-3.787,3.263-5.826,4.713
					c-7.577,5.389-18.756,0.696-19.406-8.738c-0.279-4.034,2.252-5.508-0.178-9.109c-1.577-2.338-5.372-3.552-5.206-6.865
					c0.028-0.586,0.186-1.075,0.425-1.503c-0.683,0.622-1.156,1.386-1.209,2.464c-0.164,3.312,3.63,4.527,5.206,6.867
					c2.429,3.6-0.1,5.073,0.176,9.109c0.651,9.434,11.831,14.128,19.409,8.737c2.037-1.451,3.516-3.705,5.824-4.712
					c2.102-0.918,4.631-0.914,6.878-1.226c3.958-0.548,7.975-0.93,10.485-4.467C166.98,195.328,163.363,195.68,159.794,196.176z"/>
			</g>
			<g>
				<path style="fill:#E7B57C;" d="M138.968,174.52c-0.679-0.551-1.534,0.503-0.857,1.053
					C138.789,176.126,139.647,175.073,138.968,174.52z"/>
				<path style="fill:#E7B57C;" d="M136.412,176.664c0.047-0.095,0.056-0.177,0.056-0.279c-0.004-0.227-0.268-0.441-0.489-0.397
					c-0.102,0.02-0.183,0.044-0.263,0.112c-0.234,0.185-0.27,0.539-0.025,0.738C135.938,177.038,136.274,176.93,136.412,176.664z"/>
				<path style="fill:#E7B57C;" d="M136.729,178.067c-0.422-0.343-0.953,0.311-0.532,0.651
					C136.618,179.061,137.149,178.41,136.729,178.067z"/>
				<path style="fill:#E7B57C;" d="M139.393,177.158c-0.479-0.389-1.084,0.354-0.605,0.745
					C139.268,178.294,139.874,177.547,139.393,177.158z"/>
				<path style="fill:#E7B57C;" d="M138.921,180.111c-0.386-0.315-0.871,0.283-0.486,0.596
					C138.821,181.023,139.309,180.425,138.921,180.111z"/>
				<path style="fill:#E7B57C;" d="M134.725,183.163c-0.024-0.02-0.054,0.017-0.029,0.036
					C134.719,183.221,134.751,183.183,134.725,183.163z"/>
				<path style="fill:#E7B57C;" d="M134.492,182.001c-0.279-0.229-0.634,0.205-0.355,0.434
					C134.42,182.663,134.773,182.229,134.492,182.001z"/>
				<path style="fill:#E7B57C;" d="M133.616,179.785c-0.199-0.16-0.45,0.146-0.249,0.309
					C133.564,180.256,133.815,179.946,133.616,179.785z"/>
				<path style="fill:#E7B57C;" d="M133.94,174.91c-0.492-0.4-1.115,0.362-0.624,0.764
					C133.811,176.075,134.433,175.311,133.94,174.91z"/>
				<path style="fill:#E7B57C;" d="M134.557,171.646c-0.372-0.303-0.847,0.277-0.472,0.581
					C134.458,172.532,134.933,171.95,134.557,171.646z"/>
				<path style="fill:#E7B57C;" d="M140.923,174.962c-0.009-0.008-0.021-0.021-0.029-0.03c-0.023-0.043-0.059-0.083-0.118-0.116
					c-0.005-0.001-0.014-0.004-0.021-0.008c-0.129-0.071-0.242-0.015-0.303,0.081c-0.082,0.079-0.112,0.199-0.017,0.314
					c0.004,0.007,0.01,0.012,0.014,0.017c0.042,0.051,0.09,0.076,0.136,0.093c0.013,0.005,0.024,0.012,0.035,0.02
					C140.834,175.447,141.076,175.148,140.923,174.962z"/>
				<path style="fill:#E7B57C;" d="M137.066,184.632c-0.445-0.361-1.005,0.326-0.562,0.688
					C136.949,185.681,137.509,184.993,137.066,184.632z"/>
				<path style="fill:#E7B57C;" d="M128.912,180.433c-0.47-0.381-1.059,0.345-0.589,0.725
					C128.79,181.537,129.378,180.814,128.912,180.433z"/>
				<path style="fill:#E7B57C;" d="M128.253,177.555c-0.456-0.372-1.032,0.336-0.576,0.708
					C128.132,178.632,128.708,177.924,128.253,177.555z"/>
				<path style="fill:#E7B57C;" d="M130.442,179.078c-0.492-0.4-1.11,0.361-0.62,0.761
					C130.314,180.238,130.933,179.478,130.442,179.078z"/>
				<path style="fill:#E7B57C;" d="M130.769,176.832c-0.525-0.426-1.191,0.389-0.665,0.816
					C130.63,178.077,131.294,177.26,130.769,176.832z"/>
				<path style="fill:#E7B57C;" d="M129.511,175.482c-0.2-0.162-0.451,0.146-0.251,0.309
					C129.458,175.95,129.71,175.644,129.511,175.482z"/>
				<path style="fill:#E7B57C;" d="M129.052,173.674c-0.397-0.323-0.9,0.294-0.504,0.618
					C128.948,174.616,129.449,173.998,129.052,173.674z"/>
				<path style="fill:#E7B57C;" d="M126.828,174.696c-0.445-0.361-1.006,0.328-0.562,0.689
					C126.711,175.747,127.272,175.059,126.828,174.696z"/>
			</g>
			<g>
				<path style="fill:#E7B57C;" d="M161.414,173.315c-0.677-0.552-1.532,0.5-0.855,1.05
					C161.238,174.917,162.093,173.866,161.414,173.315z"/>
				<path style="fill:#E7B57C;" d="M158.86,175.458c0.045-0.093,0.054-0.177,0.054-0.28c-0.003-0.227-0.268-0.441-0.488-0.398
					c-0.103,0.021-0.185,0.044-0.265,0.11c-0.234,0.189-0.27,0.542-0.024,0.742C158.385,175.833,158.721,175.724,158.86,175.458z"/>
				<path style="fill:#E7B57C;" d="M159.175,176.859c-0.422-0.34-0.951,0.311-0.531,0.654
					C159.064,177.854,159.594,177.202,159.175,176.859z"/>
				<path style="fill:#E7B57C;" d="M161.841,175.952c-0.479-0.39-1.084,0.355-0.606,0.744
					C161.715,177.086,162.322,176.342,161.841,175.952z"/>
				<path style="fill:#E7B57C;" d="M161.369,178.902c-0.386-0.314-0.873,0.284-0.487,0.599
					C161.268,179.815,161.755,179.216,161.369,178.902z"/>
				<path style="fill:#E7B57C;" d="M157.173,181.956c-0.025-0.021-0.058,0.018-0.033,0.038
					C157.166,182.014,157.198,181.976,157.173,181.956z"/>
				<path style="fill:#E7B57C;" d="M156.939,180.795c-0.283-0.231-0.633,0.204-0.353,0.432
					C156.867,181.455,157.22,181.023,156.939,180.795z"/>
				<path style="fill:#E7B57C;" d="M156.064,178.576c-0.199-0.161-0.451,0.15-0.251,0.31
					C156.01,179.049,156.261,178.739,156.064,178.576z"/>
				<path style="fill:#E7B57C;" d="M156.386,173.704c-0.493-0.401-1.115,0.363-0.621,0.764
					C156.259,174.868,156.879,174.105,156.386,173.704z"/>
				<path style="fill:#E7B57C;" d="M157.005,170.441c-0.374-0.307-0.847,0.274-0.472,0.578
					C156.908,171.325,157.379,170.745,157.005,170.441z"/>
				<path style="fill:#E7B57C;" d="M163.368,173.757c-0.009-0.012-0.017-0.022-0.025-0.033c-0.025-0.04-0.061-0.08-0.12-0.109
					c-0.008-0.006-0.011-0.008-0.018-0.011c-0.132-0.074-0.243-0.018-0.306,0.078c-0.081,0.08-0.113,0.2-0.017,0.314
					c0.005,0.006,0.008,0.011,0.015,0.019c0.041,0.05,0.089,0.076,0.134,0.094c0.01,0.004,0.024,0.012,0.037,0.018
					C163.281,174.242,163.525,173.94,163.368,173.757z"/>
				<path style="fill:#E7B57C;" d="M159.513,183.425c-0.445-0.361-1.005,0.326-0.559,0.689
					C159.398,184.474,159.957,183.786,159.513,183.425z"/>
				<path style="fill:#E7B57C;" d="M151.358,179.224c-0.467-0.379-1.057,0.346-0.589,0.726
					C151.236,180.33,151.826,179.605,151.358,179.224z"/>
				<path style="fill:#E7B57C;" d="M150.7,176.349c-0.457-0.371-1.032,0.337-0.575,0.706
					C150.58,177.427,151.156,176.72,150.7,176.349z"/>
				<path style="fill:#E7B57C;" d="M152.889,177.869c-0.49-0.399-1.11,0.365-0.618,0.762
					C152.76,179.029,153.379,178.269,152.889,177.869z"/>
				<path style="fill:#E7B57C;" d="M153.216,175.625c-0.528-0.428-1.19,0.39-0.666,0.817
					C153.077,176.87,153.742,176.054,153.216,175.625z"/>
				<path style="fill:#E7B57C;" d="M151.958,174.273c-0.2-0.162-0.45,0.146-0.251,0.309
					C151.905,174.745,152.157,174.435,151.958,174.273z"/>
				<path style="fill:#E7B57C;" d="M151.5,172.468c-0.399-0.325-0.9,0.291-0.501,0.616
					C151.395,173.406,151.898,172.79,151.5,172.468z"/>
				<path style="fill:#E7B57C;" d="M149.274,173.492c-0.445-0.364-1.005,0.326-0.56,0.688
					C149.158,174.54,149.719,173.852,149.274,173.492z"/>
			</g>
			<g>
				<path style="fill:#E7B57C;" d="M154.159,185.725c-0.676-0.55-1.531,0.499-0.852,1.05
					C153.983,187.328,154.838,186.275,154.159,185.725z"/>
				<path style="fill:#E7B57C;" d="M151.605,187.867c0.05-0.092,0.056-0.176,0.054-0.28c-0.003-0.226-0.265-0.442-0.486-0.397
					c-0.103,0.021-0.183,0.044-0.266,0.111c-0.234,0.187-0.268,0.54-0.021,0.74C151.13,188.242,151.469,188.134,151.605,187.867z"/>
				<path style="fill:#E7B57C;" d="M151.922,189.269c-0.422-0.343-0.952,0.311-0.532,0.653
					C151.811,190.264,152.342,189.612,151.922,189.269z"/>
				<path style="fill:#E7B57C;" d="M154.586,188.361c-0.479-0.388-1.084,0.356-0.605,0.744
					C154.46,189.496,155.066,188.753,154.586,188.361z"/>
				<path style="fill:#E7B57C;" d="M154.113,191.312c-0.383-0.313-0.87,0.286-0.485,0.6
					C154.014,192.226,154.501,191.626,154.113,191.312z"/>
				<path style="fill:#E7B57C;" d="M149.919,194.364c-0.027-0.02-0.056,0.017-0.032,0.039
					C149.913,194.424,149.945,194.386,149.919,194.364z"/>
				<path style="fill:#E7B57C;" d="M149.685,193.203c-0.278-0.229-0.633,0.207-0.353,0.434
					C149.611,193.866,149.966,193.43,149.685,193.203z"/>
				<path style="fill:#E7B57C;" d="M148.809,190.986c-0.197-0.16-0.449,0.149-0.25,0.31
					C148.756,191.458,149.009,191.149,148.809,190.986z"/>
				<path style="fill:#E7B57C;" d="M149.131,186.113c-0.492-0.4-1.112,0.363-0.621,0.765
					C149.004,187.279,149.626,186.514,149.131,186.113z"/>
				<path style="fill:#E7B57C;" d="M149.751,182.849c-0.375-0.302-0.847,0.277-0.475,0.582
					C149.652,183.735,150.125,183.155,149.751,182.849z"/>
				<path style="fill:#E7B57C;" d="M156.116,186.165c-0.01-0.01-0.02-0.021-0.027-0.03c-0.025-0.043-0.059-0.083-0.118-0.115
					c-0.006-0.003-0.015-0.005-0.021-0.011c-0.132-0.069-0.243-0.014-0.303,0.082c-0.083,0.079-0.114,0.2-0.019,0.314
					c0.005,0.006,0.011,0.012,0.014,0.018c0.042,0.051,0.09,0.077,0.135,0.093c0.01,0.004,0.024,0.013,0.037,0.019
					C156.026,186.65,156.27,186.352,156.116,186.165z"/>
				<path style="fill:#E7B57C;" d="M152.259,195.833c-0.443-0.36-1.004,0.328-0.56,0.69
					C152.143,196.884,152.702,196.196,152.259,195.833z"/>
				<path style="fill:#E7B57C;" d="M144.105,191.635c-0.468-0.381-1.059,0.344-0.59,0.726
					C143.983,192.742,144.572,192.016,144.105,191.635z"/>
				<path style="fill:#E7B57C;" d="M143.446,188.757c-0.456-0.37-1.031,0.338-0.576,0.708
					C143.328,189.836,143.904,189.128,143.446,188.757z"/>
				<path style="fill:#E7B57C;" d="M145.635,190.279c-0.489-0.399-1.108,0.363-0.62,0.762
					C145.505,191.441,146.127,190.68,145.635,190.279z"/>
				<path style="fill:#E7B57C;" d="M145.961,188.036c-0.528-0.427-1.191,0.386-0.664,0.816
					C145.822,189.279,146.487,188.463,145.961,188.036z"/>
				<path style="fill:#E7B57C;" d="M144.704,186.684c-0.199-0.162-0.451,0.148-0.252,0.311
					C144.65,187.153,144.902,186.847,144.704,186.684z"/>
				<path style="fill:#E7B57C;" d="M144.245,184.877c-0.397-0.324-0.898,0.294-0.5,0.617
					C144.142,185.815,144.642,185.199,144.245,184.877z"/>
				<path style="fill:#E7B57C;" d="M142.02,185.9c-0.445-0.361-1.006,0.326-0.558,0.688
					C141.906,186.95,142.464,186.263,142.02,185.9z"/>
			</g>
		</g>
		<path style="fill:#E8A123;" d="M164.571,332.353c0,0-20.756,7.783-55.347-2.595c-29.535-8.859-63.564-14.701-63.564-14.701
			l9.509-14.257l105.195,17.131L164.571,332.353z"/>
		<path style="fill:#FFC421;" d="M55.17,300.801c0,0-6.915-9.525-2.592-32.444c4.325-22.916,8.651-34.159,11.244-48.429
			c2.594-14.268-3.028-15.134-1.73-27.673c1.296-12.539,7.352-19.889,7.352-19.889s22.463,12.582,52.576,17.295
			c38.661,6.055,46.458-4.203,60.19,4.74c1.388,8.233-2.603,15.403-8.558,42.315c-1.718,7.764-3.415,36.788-4.325,46.776
			c-1.729,19.025-8.528,34.44-8.528,34.44s-13.171,5.241-50.278-3.74C73.414,305.213,55.17,300.801,55.17,300.801z"/>
		<path style="fill:#FFFFFF;" d="M63.821,219.928c-0.725,3.986-1.588,7.738-2.544,11.571c5.244,11.086,14.663,21.609,22.333,30.226
			c10.189,11.449,20.954,22.198,34.268,29.976c13.329,7.787,27.073,14.465,42.141,18.039c1.173,0.278,2.347,0.555,3.521,0.833
			c2.094-6.304,4.787-16.076,5.786-27.08c0.432-4.729,1.038-13.73,1.742-22.719c-45.267-8.873-85.772-38.34-106.015-80.475
			c-1.281,3.155-2.467,7.175-2.962,11.956C60.793,204.794,66.415,205.66,63.821,219.928z"/>
		<g>
			<polygon style="fill:#FFC421;" points="61.611,301.647 57.624,310.59 59.976,301.084 			"/>
		</g>
		<g>
			<polygon style="fill:#FFC421;" points="77.433,304.473 73.444,313.416 75.797,303.91 			"/>
		</g>
		<g>
			<polygon style="fill:#FFC421;" points="69.56,302.974 65.571,311.916 67.924,302.411 			"/>
		</g>
		<g>
			<polygon style="fill:#FFC421;" points="92.778,309.086 88.789,318.028 91.143,308.523 			"/>
		</g>
		<g>
			<polygon style="fill:#FFC421;" points="85.111,307.586 81.122,316.53 83.475,307.023 			"/>
		</g>
		<g>
			<polygon style="fill:#FFC421;" points="110.016,313.647 106.028,322.592 108.38,313.085 			"/>
		</g>
		<g>
			<polygon style="fill:#FFC421;" points="100.937,310.871 96.947,319.816 99.301,310.309 			"/>
		</g>
		<g>
			<polygon style="fill:#FFC421;" points="122.836,316.811 118.849,325.754 121.201,316.249 			"/>
		</g>
		<g>
			<polygon style="fill:#FFC421;" points="134.623,316.53 133.758,327.021 132.893,316.53 			"/>
		</g>
		<g>
			<polygon style="fill:#FFC421;" points="148.42,319.336 148.716,328.029 146.706,319.566 			"/>
		</g>
		<g>
			<polygon style="fill:#FFC421;" points="157.653,317.371 157.951,326.064 155.939,317.602 			"/>
		</g>
		<path style="fill:#EFE6DB;" d="M110.779,294.555c-10.28-15.805-10.672-39.202-9.126-57.437
			c1.901-22.471,1.683-30.992,13.259-48.736c-27.306-4.99-45.469-16.016-45.469-16.016s-6.055,7.35-7.352,19.889
			c-1.297,12.54,4.325,13.406,1.73,27.673c-2.593,14.27-6.919,25.513-11.244,48.429c-4.323,22.919,2.592,32.444,2.592,32.444
			s18.244,4.412,55.35,13.391c18.856,4.564,31.518,5.453,39.428,5.226C134.383,315.672,119.327,307.701,110.779,294.555z"/>
		<path style="fill:#EFE6DB;" d="M87.313,180.656c-11.244-4.279-17.871-8.291-17.871-8.291s-6.055,7.35-7.352,19.889
			c-1.297,12.54,4.325,13.406,1.73,27.673c-2.593,14.27-6.919,25.513-11.244,48.429c-4.323,22.919,2.592,32.444,2.592,32.444
			s13.027,3.151,39.341,9.517C72.087,272.331,75.214,224.605,87.313,180.656z"/>
		<path style="fill:#E8A123;" d="M182.209,194.4c-12.161-6.038-27.428,1.068-63.36-4.018c-30.53-4.321-49.407-18.017-49.407-18.017
			l-0.7-11.675c0,0,30.392,13.254,53.276,16.721c30.445,4.611,66.768,8.647,66.768,8.647S186.586,192.365,182.209,194.4z"/>
		<g>
			<path style="fill:#FFC421;" d="M73.139,163.284c0,0,0.236,0.655,0.418,1.643c0.098,0.493,0.184,1.07,0.248,1.688
				c0.073,0.618,0.102,1.279,0.135,1.94c0.034,1.323-0.034,2.648-0.171,3.645c-0.125,0.996-0.324,1.664-0.324,1.664
				s-0.237-0.655-0.42-1.642c-0.194-0.987-0.339-2.307-0.381-3.629c-0.005-0.662-0.015-1.323,0.022-1.945
				c0.028-0.621,0.081-1.202,0.15-1.7C72.941,163.952,73.139,163.284,73.139,163.284z"/>
		</g>
		<g>
			<path style="fill:#FFC421;" d="M82.964,167.176c-0.001,0,0.236,0.701,0.418,1.755c0.098,0.527,0.183,1.143,0.248,1.805
				c0.072,0.66,0.101,1.366,0.134,2.072c0.034,1.413-0.035,2.828-0.172,3.892c-0.125,1.064-0.325,1.775-0.325,1.775
				c0,0-0.237-0.7-0.419-1.755c-0.193-1.055-0.338-2.464-0.38-3.877c-0.005-0.707-0.014-1.413,0.023-2.077
				c0.028-0.663,0.081-1.283,0.15-1.815C82.767,167.888,82.965,167.176,82.964,167.176z"/>
		</g>
		<g>
			<path style="fill:#FFC421;" d="M95.171,172.365c0,0,0.175,0.684,0.267,1.698c0.053,0.508,0.086,1.099,0.093,1.729
				c0.016,0.632-0.015,1.303-0.043,1.974c-0.086,1.34-0.276,2.674-0.502,3.669c-0.216,0.996-0.475,1.653-0.475,1.653
				s-0.177-0.684-0.269-1.698c-0.103-1.016-0.127-2.363-0.048-3.703c0.055-0.67,0.106-1.339,0.2-1.964
				c0.084-0.626,0.19-1.208,0.304-1.705C94.913,173.022,95.171,172.365,95.171,172.365z"/>
		</g>
		<g>
			<path style="fill:#FFC421;" d="M110.873,177.035c0,0,0.175,0.684,0.267,1.698c0.052,0.508,0.085,1.099,0.093,1.73
				c0.016,0.632-0.015,1.303-0.043,1.974c-0.086,1.34-0.275,2.674-0.502,3.669c-0.216,0.996-0.475,1.653-0.475,1.653
				s-0.177-0.684-0.269-1.698c-0.103-1.016-0.127-2.363-0.049-3.703c0.055-0.669,0.106-1.339,0.2-1.964
				c0.085-0.626,0.19-1.208,0.304-1.705C110.616,177.692,110.874,177.035,110.873,177.035z"/>
		</g>
		<g>
			<path style="fill:#FFC421;" d="M130.363,180.298c0,0,0.175,0.684,0.267,1.699c0.053,0.508,0.085,1.099,0.093,1.729
				c0.016,0.632-0.015,1.303-0.043,1.974c-0.086,1.34-0.275,2.674-0.502,3.67c-0.216,0.996-0.475,1.653-0.475,1.653
				s-0.177-0.684-0.269-1.699c-0.103-1.016-0.127-2.363-0.049-3.704c0.055-0.669,0.105-1.339,0.199-1.964
				c0.084-0.626,0.189-1.208,0.304-1.706C130.105,180.955,130.363,180.298,130.363,180.298z"/>
		</g>
		<g>
			<path style="fill:#FFC421;" d="M148.833,182.398c0,0,0.175,0.556,0.267,1.376c0.052,0.411,0.085,0.888,0.093,1.396
				c0.016,0.51-0.015,1.049-0.042,1.589c-0.086,1.078-0.275,2.148-0.502,2.944c-0.215,0.797-0.475,1.319-0.474,1.319
				c0,0-0.176-0.556-0.268-1.376c-0.103-0.821-0.127-1.907-0.049-2.986c0.055-0.538,0.106-1.077,0.199-1.578
				c0.085-0.502,0.19-0.968,0.304-1.366C148.575,182.921,148.833,182.398,148.833,182.398z"/>
		</g>
		<g>
			<path style="fill:#FFC421;" d="M165.868,184.039c0,0,0.06,0.505-0.014,1.209c-0.031,0.354-0.093,0.758-0.187,1.182
				c-0.085,0.427-0.222,0.867-0.355,1.308c-0.296,0.872-0.69,1.711-1.066,2.313c-0.365,0.606-0.719,0.973-0.719,0.973
				s-0.061-0.506,0.013-1.21c0.063-0.707,0.254-1.614,0.543-2.489c0.159-0.432,0.316-0.865,0.504-1.257
				c0.181-0.395,0.374-0.754,0.563-1.055C165.516,184.407,165.868,184.039,165.868,184.039z"/>
		</g>
		<g>
			<path style="fill:#FFC421;" d="M181.001,186.71c0,0-0.061,0.463-0.294,1.059c-0.11,0.302-0.263,0.638-0.448,0.981
				c-0.179,0.349-0.409,0.692-0.636,1.039c-0.48,0.674-1.044,1.288-1.537,1.7c-0.484,0.418-0.9,0.63-0.9,0.63s0.06-0.464,0.292-1.06
				c0.223-0.602,0.612-1.34,1.086-2.018c0.25-0.33,0.497-0.663,0.765-0.948c0.261-0.29,0.527-0.546,0.774-0.752
				C180.586,186.923,181.001,186.71,181.001,186.71z"/>
		</g>
	</g>
</g>
<g>
	<path style="fill:#DC8745;" d="M382.792,274.249c-5.737-26.33-39.696-37.975-80.338-37.975c-40.641,0-70.215,12.151-79.77,38.592
		c-1.578,4.364-30.273,77.528,79.77,77.528C412.5,352.394,383.781,278.782,382.792,274.249z"/>
	<path style="fill:#D16F34;" d="M382.792,274.249c-0.927-4.258-2.602-8.125-4.913-11.627c7.885,28.651-4.715,64.547-35.439,74.451
		c-12.643,4.072-26.038,4.102-39.183,3.888c-13.858-0.225-27.666,0.301-41.431-1.648c-13.037-1.846-26.571-7.676-37.637-16.376
		c9.147,15.836,30.787,29.457,78.264,29.457C412.5,352.394,383.781,278.782,382.792,274.249z"/>
	<path style="fill:#754C29;" d="M381.463,269.69c2.995,10.428-0.571,19.561-7.952,21.775c-4.534,1.359-10.632-8.355-19.748-4.558
		c-9.114,3.797-2.024,27.596-13.165,32.405c-11.138,4.81-1.519-15.698-18.733-15.698c-17.217,0-13.082,19.749-27.092,20.001
		c-14.007,0.255-13.134-24.204-25.061-24.05c-4.692,0.062-15.141,11.52-19.495,11.393c-7.941-0.231-10.454-15.21-16.454-16.624
		c-7.173-1.691-10.28,7.266-13.492,3.064c-6.579-8.605-2.097-17.457,3.175-27.708c9.469-18.399,35.376-37.468,79.01-37.468
		C346.089,232.223,375.75,249.802,381.463,269.69z"/>
	<path style="fill:#6A3F22;" d="M381.463,269.69c-1.56-5.428-4.916-10.68-9.842-15.455c4.76,8.029-1.993,40.099-67.478,40.099
		c-65.484,0-77.639-24.981-73.72-34.823c-2.894,3.334-5.22,6.771-6.979,10.18c-5.272,10.251-9.754,19.103-3.175,27.708
		c3.212,4.201,6.319-4.756,13.492-3.064c6.001,1.414,8.513,16.393,16.454,16.624c4.354,0.127,14.803-11.331,19.495-11.393
		c11.928-0.154,11.054,24.305,25.061,24.05c14.011-0.252,9.876-20.001,27.092-20.001c17.214,0,7.595,20.508,18.733,15.698
		c11.141-4.81,4.051-28.608,13.165-32.405c9.116-3.798,15.214,5.917,19.748,4.558C380.892,289.251,384.458,280.118,381.463,269.69z"
		/>
	<ellipse style="fill:#573717;" cx="303.606" cy="257.876" rx="27.145" ry="12.055"/>
	<g>
		<path style="fill:#DC8745;" d="M280.124,263.904c4.694,3.6,13.44,6.026,23.483,6.026c10.04,0,18.788-2.427,23.482-6.026
			c-4.693-3.6-13.441-6.028-23.482-6.028C293.564,257.876,284.818,260.305,280.124,263.904z"/>
	</g>
	<path style="fill:#82552F;" d="M337.726,281.844c0,4.288-17.002,7.762-37.975,7.762c-20.975,0-37.978-3.474-37.978-7.762
		c0-4.287,17.002,1.352,37.978,1.352C320.723,283.196,337.726,277.557,337.726,281.844z"/>
	<path style="fill:#82552F;" d="M243.718,275.094c-4.228-0.7-10.285-5.675-8.992-13.491c1.296-7.817,19.278-16.441,23.509-15.739
		c4.228,0.7-15.885,8.971-17.181,16.788C239.755,270.466,247.95,275.794,243.718,275.094z"/>
	<g>
		<g>
			<path style="fill:#EFCEA5;" d="M231.782,295.793c-1.928,0-1.928,2.989,0,2.989C233.71,298.782,233.71,295.793,231.782,295.793z"
				/>
			<path style="fill:#EFCEA5;" d="M231.203,300.972c-0.046-0.227-0.153-0.38-0.299-0.556c-0.317-0.385-1.068-0.385-1.386,0
				c-0.144,0.176-0.249,0.329-0.298,0.556c-0.137,0.647,0.294,1.301,0.991,1.301C230.911,302.272,231.339,301.619,231.203,300.972z"
				/>
			<path style="fill:#EFCEA5;" d="M233.692,302.931c-1.195,0-1.195,1.854,0,1.854C234.89,304.785,234.89,302.931,233.692,302.931z"
				/>
			<path style="fill:#EFCEA5;" d="M236.994,297.67c-1.364,0-1.364,2.113,0,2.113C238.354,299.783,238.354,297.67,236.994,297.67z"/>
			<path style="fill:#EFCEA5;" d="M240.292,303.373c-1.097,0-1.097,1.703,0,1.703C241.389,305.076,241.389,303.373,240.292,303.373z
				"/>
			<path style="fill:#EFCEA5;" d="M237.36,314.433c-0.068,0-0.068,0.109,0,0.109C237.43,314.542,237.43,314.433,237.36,314.433z"/>
			<path style="fill:#EFCEA5;" d="M235.344,312.77c-0.796,0-0.796,1.237,0,1.237C236.142,314.007,236.142,312.77,235.344,312.77z"/>
			<path style="fill:#EFCEA5;" d="M230.761,310.2c-0.563,0-0.563,0.876,0,0.876C231.326,311.076,231.326,310.2,230.761,310.2z"/>
			<path style="fill:#EFCEA5;" d="M224.533,301.41c-1.401,0-1.401,2.175,0,2.175C225.933,303.585,225.933,301.41,224.533,301.41z"/>
			<path style="fill:#EFCEA5;" d="M219.826,298.958c-1.063,0-1.063,1.651,0,1.651C220.889,300.609,220.889,298.958,219.826,298.958z
				"/>
			<path style="fill:#EFCEA5;" d="M237.565,308.587c-0.031-0.007-0.059-0.011-0.088-0.017c-0.099-0.036-0.216-0.058-0.36-0.029
				c-0.017,0.003-0.035,0.01-0.05,0.011c-0.322,0.06-0.435,0.313-0.407,0.56c-0.028,0.251,0.085,0.5,0.407,0.563
				c0.016,0.007,0.034,0.009,0.05,0.012c0.144,0.027,0.261,0.01,0.36-0.029c0.029-0.006,0.058-0.012,0.088-0.017
				C238.087,309.539,238.087,308.689,237.565,308.587z"/>
			<path style="fill:#EFCEA5;" d="M243.409,313.693c-1.264,0-1.264,1.957,0,1.957C244.672,315.65,244.672,313.693,243.409,313.693z"
				/>
			<path style="fill:#EFCEA5;" d="M223.614,317.857c-1.329,0-1.329,2.063,0,2.063C224.94,319.919,224.94,317.857,223.614,317.857z"
				/>
			<path style="fill:#EFCEA5;" d="M224.347,313.405c-1.397,0-1.397,2.165,0,2.165C225.742,315.57,225.742,313.405,224.347,313.405z"
				/>
			<path style="fill:#EFCEA5;" d="M221.78,309.111c-1.495,0-1.495,2.322,0,2.322C223.274,311.434,223.274,309.111,221.78,309.111z"
				/>
			<path style="fill:#EFCEA5;" d="M220.249,305.66c-0.565,0-0.565,0.876,0,0.876C220.815,306.536,220.815,305.66,220.249,305.66z"/>
			<path style="fill:#EFCEA5;" d="M229.195,318.737c-1.132,0-1.132,1.754,0,1.754C230.326,320.491,230.326,318.737,229.195,318.737z
				"/>
			<path style="fill:#EFCEA5;" d="M226.529,307.153c-1.261,0-1.261,1.958,0,1.958C227.794,309.111,227.794,307.153,226.529,307.153z
				"/>
		</g>
		<g>
			<path style="fill:#EFCEA5;" d="M270.615,303.497c-1.929,0-1.929,2.99,0,2.99C272.543,306.487,272.543,303.497,270.615,303.497z"
				/>
			<path style="fill:#EFCEA5;" d="M269.223,310.719c-0.047-0.227-0.152-0.379-0.295-0.555c-0.318-0.385-1.069-0.385-1.387,0
				c-0.147,0.176-0.253,0.328-0.301,0.555c-0.134,0.648,0.294,1.301,0.991,1.301C268.933,312.02,269.361,311.367,269.223,310.719z"
				/>
			<path style="fill:#EFCEA5;" d="M271.715,312.68c-1.196,0-1.196,1.853,0,1.853C272.912,314.532,272.912,312.68,271.715,312.68z"/>
			<path style="fill:#EFCEA5;" d="M275.015,307.415c-1.364,0-1.364,2.118,0,2.118C276.375,309.533,276.375,307.415,275.015,307.415z
				"/>
			<path style="fill:#EFCEA5;" d="M278.315,313.122c-1.097,0-1.097,1.7,0,1.7C279.408,314.822,279.408,313.122,278.315,313.122z"/>
			<path style="fill:#EFCEA5;" d="M275.38,324.182c-0.073,0-0.073,0.109,0,0.109C275.452,324.291,275.452,324.182,275.38,324.182z"
				/>
			<path style="fill:#EFCEA5;" d="M273.364,322.518c-0.799,0-0.799,1.237,0,1.237C274.162,323.755,274.162,322.518,273.364,322.518z
				"/>
			<path style="fill:#EFCEA5;" d="M268.781,319.947c-0.561,0-0.561,0.877,0,0.877C269.349,320.824,269.349,319.947,268.781,319.947z
				"/>
			<path style="fill:#EFCEA5;" d="M262.555,311.159c-1.402,0-1.402,2.172,0,2.172C263.955,313.331,263.955,311.159,262.555,311.159z
				"/>
			<path style="fill:#EFCEA5;" d="M257.476,309.815c-1.063,0-1.063,1.646,0,1.646C258.542,311.461,258.542,309.815,257.476,309.815z
				"/>
			<path style="fill:#EFCEA5;" d="M265.759,305.134c-0.031-0.006-0.06-0.011-0.09-0.018c-0.102-0.036-0.215-0.057-0.359-0.028
				c-0.016,0.003-0.032,0.007-0.047,0.011c-0.325,0.062-0.436,0.312-0.409,0.562c-0.027,0.248,0.084,0.499,0.409,0.562
				c0.015,0.003,0.031,0.006,0.047,0.011c0.145,0.026,0.257,0.008,0.359-0.029c0.03-0.005,0.059-0.012,0.09-0.017
				C266.281,306.084,266.281,305.235,265.759,305.134z"/>
			<path style="fill:#EFCEA5;" d="M281.432,323.44c-1.265,0-1.265,1.959,0,1.959C282.692,325.398,282.692,323.44,281.432,323.44z"/>
			<path style="fill:#EFCEA5;" d="M261.632,327.603c-1.327,0-1.327,2.064,0,2.064C262.966,329.667,262.966,327.603,261.632,327.603z
				"/>
			<path style="fill:#EFCEA5;" d="M256.504,323.599c-1.296,0-1.296,2.01,0,2.01C257.798,325.608,257.798,323.599,256.504,323.599z"
				/>
			<path style="fill:#EFCEA5;" d="M262.368,323.154c-1.397,0-1.397,2.164,0,2.164C263.765,325.318,263.765,323.154,262.368,323.154z
				"/>
			<path style="fill:#EFCEA5;" d="M259.802,318.861c-1.497,0-1.497,2.318,0,2.318C261.298,321.18,261.298,318.861,259.802,318.861z"
				/>
			<path style="fill:#EFCEA5;" d="M255.768,318.3c-0.563,0-0.563,0.876,0,0.876C256.336,319.176,256.336,318.3,255.768,318.3z"/>
			<path style="fill:#EFCEA5;" d="M252.47,315.845c-1.127,0-1.127,1.754,0,1.754C253.601,317.599,253.601,315.845,252.47,315.845z"
				/>
			<path style="fill:#EFCEA5;" d="M250.087,320.69c-1.26,0-1.26,1.96,0,1.96C251.351,322.65,251.351,320.69,250.087,320.69z"/>
		</g>
		<g>
			<path style="fill:#EFCEA5;" d="M314.323,320.509c-1.927,0-1.927,2.989,0,2.989C316.253,323.498,316.253,320.509,314.323,320.509z
				"/>
			<path style="fill:#EFCEA5;" d="M312.935,327.732c-0.049-0.229-0.154-0.377-0.298-0.555c-0.32-0.385-1.066-0.385-1.387,0
				c-0.146,0.178-0.249,0.326-0.298,0.555c-0.137,0.648,0.294,1.303,0.993,1.303C312.641,329.034,313.07,328.38,312.935,327.732z"/>
			<path style="fill:#EFCEA5;" d="M315.423,329.691c-1.198,0-1.198,1.855,0,1.855C316.619,331.547,316.619,329.691,315.423,329.691z
				"/>
			<path style="fill:#EFCEA5;" d="M318.722,324.431c-1.363,0-1.363,2.112,0,2.112C320.086,326.543,320.086,324.431,318.722,324.431z
				"/>
			<path style="fill:#EFCEA5;" d="M322.023,330.136c-1.097,0-1.097,1.701,0,1.701C323.122,331.837,323.122,330.136,322.023,330.136z
				"/>
			<path style="fill:#EFCEA5;" d="M319.09,341.194c-0.071,0-0.071,0.11,0,0.11C319.16,341.305,319.16,341.194,319.09,341.194z"/>
			<path style="fill:#EFCEA5;" d="M317.071,339.531c-0.794,0-0.794,1.236,0,1.236C317.873,340.768,317.873,339.531,317.071,339.531z
				"/>
			<path style="fill:#EFCEA5;" d="M312.493,336.962c-0.565,0-0.565,0.878,0,0.878C313.058,337.84,313.058,336.962,312.493,336.962z"
				/>
			<path style="fill:#EFCEA5;" d="M306.263,328.173c-1.4,0-1.4,2.171,0,2.171C307.664,330.344,307.664,328.173,306.263,328.173z"/>
			<path style="fill:#EFCEA5;" d="M302.776,321.728c-1.06,0-1.06,1.65,0,1.65C303.843,323.379,303.843,321.728,302.776,321.728z"/>
			<path style="fill:#EFCEA5;" d="M318.281,318.546c-0.028-0.005-0.06-0.013-0.089-0.015c-0.099-0.041-0.213-0.059-0.359-0.033
				c-0.018,0.007-0.031,0.01-0.051,0.011c-0.32,0.063-0.433,0.314-0.404,0.563c-0.029,0.25,0.085,0.501,0.404,0.564
				c0.02,0.002,0.033,0.006,0.051,0.008c0.146,0.03,0.261,0.009,0.359-0.026c0.029-0.007,0.06-0.012,0.089-0.018
				C318.803,319.497,318.803,318.647,318.281,318.546z"/>
			<path style="fill:#EFCEA5;" d="M325.137,340.453c-1.262,0-1.262,1.958,0,1.958C326.402,342.411,326.402,340.453,325.137,340.453z
				"/>
			<path style="fill:#EFCEA5;" d="M305.345,344.618c-1.331,0-1.331,2.059,0,2.059C306.673,346.677,306.673,344.618,305.345,344.618z
				"/>
			<path style="fill:#EFCEA5;" d="M300.213,340.61c-1.298,0-1.298,2.013,0,2.013C301.509,342.623,301.509,340.61,300.213,340.61z"/>
			<path style="fill:#EFCEA5;" d="M306.077,340.166c-1.396,0-1.396,2.163,0,2.163S307.473,340.166,306.077,340.166z"/>
			<path style="fill:#EFCEA5;" d="M303.51,335.871c-1.496,0-1.496,2.321,0,2.321C305.009,338.192,305.009,335.871,303.51,335.871z"
				/>
			<path style="fill:#EFCEA5;" d="M299.48,335.31c-0.565,0-0.565,0.878,0,0.878C300.043,336.188,300.043,335.31,299.48,335.31z"/>
			<path style="fill:#EFCEA5;" d="M296.182,332.859c-1.133,0-1.133,1.752,0,1.752C297.311,334.611,297.311,332.859,296.182,332.859z
				"/>
			<path style="fill:#EFCEA5;" d="M293.798,337.703c-1.265,0-1.265,1.96,0,1.96C295.061,339.663,295.061,337.703,293.798,337.703z"
				/>
		</g>
		<g>
			<path style="fill:#EFCEA5;" d="M354.008,308.607c-1.93,0-1.93,2.988,0,2.988C355.933,311.596,355.933,308.607,354.008,308.607z"
				/>
			<path style="fill:#EFCEA5;" d="M352.616,315.827c-0.048-0.226-0.157-0.377-0.299-0.553c-0.319-0.386-1.066-0.386-1.387,0
				c-0.143,0.176-0.247,0.327-0.298,0.553c-0.135,0.651,0.292,1.303,0.993,1.303C352.323,317.13,352.753,316.478,352.616,315.827z"
				/>
			<path style="fill:#EFCEA5;" d="M355.106,317.787c-1.195,0-1.195,1.855,0,1.855C356.304,319.643,356.304,317.787,355.106,317.787z
				"/>
			<path style="fill:#EFCEA5;" d="M358.405,312.528c-1.364,0-1.364,2.112,0,2.112C359.768,314.641,359.768,312.528,358.405,312.528z
				"/>
			<path style="fill:#EFCEA5;" d="M361.704,318.23c-1.095,0-1.095,1.702,0,1.702C362.803,319.933,362.803,318.23,361.704,318.23z"/>
			<path style="fill:#EFCEA5;" d="M358.773,329.291c-0.072,0-0.072,0.109,0,0.109C358.845,329.4,358.845,329.291,358.773,329.291z"
				/>
			<path style="fill:#EFCEA5;" d="M356.757,327.628c-0.798,0-0.798,1.237,0,1.237C357.555,328.865,357.555,327.628,356.757,327.628z
				"/>
			<path style="fill:#EFCEA5;" d="M352.176,325.059c-0.568,0-0.568,0.875,0,0.875C352.738,325.934,352.738,325.059,352.176,325.059z
				"/>
			<path style="fill:#EFCEA5;" d="M345.946,316.271c-1.4,0-1.4,2.171,0,2.171C347.347,318.441,347.347,316.271,345.946,316.271z"/>
			<path style="fill:#EFCEA5;" d="M342.458,309.825c-1.059,0-1.059,1.65,0,1.65C343.525,311.476,343.525,309.825,342.458,309.825z"
				/>
			<path style="fill:#EFCEA5;" d="M357.964,306.644c-0.031-0.007-0.057-0.013-0.088-0.019c-0.102-0.036-0.216-0.057-0.36-0.027
				c-0.015,0.004-0.033,0.007-0.048,0.009c-0.326,0.063-0.436,0.313-0.409,0.563c-0.027,0.249,0.083,0.499,0.409,0.562
				c0.015,0.003,0.033,0.005,0.048,0.011c0.144,0.026,0.258,0.008,0.36-0.029c0.031-0.006,0.057-0.012,0.088-0.018
				C358.487,307.596,358.487,306.743,357.964,306.644z"/>
			<path style="fill:#EFCEA5;" d="M364.821,328.551c-1.26,0-1.26,1.958,0,1.958C366.086,330.509,366.086,328.551,364.821,328.551z"
				/>
			<path style="fill:#EFCEA5;" d="M345.027,332.714c-1.33,0-1.33,2.061,0,2.061C346.353,334.774,346.353,332.714,345.027,332.714z"
				/>
			<path style="fill:#EFCEA5;" d="M339.894,328.706c-1.296,0-1.296,2.012,0,2.012C341.191,330.718,341.191,328.706,339.894,328.706z
				"/>
			<path style="fill:#EFCEA5;" d="M345.762,328.264c-1.397,0-1.397,2.164,0,2.164C347.156,330.428,347.156,328.264,345.762,328.264z
				"/>
			<path style="fill:#EFCEA5;" d="M343.192,323.971c-1.493,0-1.493,2.319,0,2.319C344.69,326.29,344.69,323.971,343.192,323.971z"/>
			<path style="fill:#EFCEA5;" d="M339.163,323.409c-0.566,0-0.566,0.877,0,0.877C339.726,324.286,339.726,323.409,339.163,323.409z
				"/>
			<path style="fill:#EFCEA5;" d="M335.862,320.955c-1.13,0-1.13,1.753,0,1.753C336.993,322.708,336.993,320.955,335.862,320.955z"
				/>
			<path style="fill:#EFCEA5;" d="M333.479,325.802c-1.261,0-1.261,1.958,0,1.958C334.744,327.76,334.744,325.802,333.479,325.802z"
				/>
		</g>
		<g>
			<path style="fill:#EFCEA5;" d="M348.115,334.219c-1.927,0-1.927,2.991,0,2.991C350.043,337.21,350.043,334.219,348.115,334.219z"
				/>
			<path style="fill:#EFCEA5;" d="M346.724,341.442c-0.046-0.228-0.153-0.38-0.3-0.553c-0.317-0.388-1.066-0.388-1.381,0
				c-0.148,0.173-0.252,0.325-0.301,0.553c-0.137,0.647,0.292,1.299,0.991,1.299C346.431,342.741,346.858,342.09,346.724,341.442z"
				/>
			<path style="fill:#EFCEA5;" d="M349.214,343.402c-1.197,0-1.197,1.855,0,1.855C350.412,345.258,350.412,343.402,349.214,343.402z
				"/>
			<path style="fill:#EFCEA5;" d="M352.514,338.143c-1.362,0-1.362,2.113,0,2.113S353.876,338.143,352.514,338.143z"/>
			<path style="fill:#EFCEA5;" d="M359.428,337.342c-1.098,0-1.098,1.702,0,1.702C360.524,339.044,360.524,337.342,359.428,337.342z
				"/>
			<path style="fill:#EFCEA5;" d="M352.881,354.903c-0.07,0-0.07,0.112,0,0.112C352.952,355.016,352.952,354.903,352.881,354.903z"
				/>
			<path style="fill:#EFCEA5;" d="M337.726,345.854c-0.798,0-0.798,1.235,0,1.235C338.523,347.09,338.523,345.854,337.726,345.854z"
				/>
			<path style="fill:#EFCEA5;" d="M332.846,341.444c-0.567,0-0.567,0.877,0,0.877C333.409,342.321,333.409,341.444,332.846,341.444z
				"/>
			<path style="fill:#EFCEA5;" d="M340.055,341.884c-1.4,0-1.4,2.171,0,2.171C341.457,344.055,341.457,341.884,340.055,341.884z"/>
			<path style="fill:#EFCEA5;" d="M336.565,335.44c-1.061,0-1.061,1.65,0,1.65C337.63,337.09,337.63,335.44,336.565,335.44z"/>
			<path style="fill:#EFCEA5;" d="M352.074,332.256c-0.033-0.005-0.06-0.01-0.087-0.015c-0.104-0.04-0.22-0.06-0.363-0.029
				c-0.016,0.002-0.034,0.005-0.049,0.008c-0.324,0.064-0.434,0.314-0.408,0.563c-0.026,0.251,0.085,0.501,0.408,0.564
				c0.016,0.003,0.033,0.005,0.049,0.008c0.143,0.029,0.259,0.011,0.363-0.027c0.028-0.005,0.054-0.013,0.087-0.018
				C352.595,333.209,352.595,332.357,352.074,332.256z"/>
			<path style="fill:#EFCEA5;" d="M333.27,349.022c-0.566,0-0.566,0.876,0,0.876C333.834,349.897,333.834,349.022,333.27,349.022z"
				/>
			<path style="fill:#EFCEA5;" d="M329.973,346.57c-1.134,0-1.134,1.751,0,1.751C331.102,348.321,331.102,346.57,329.973,346.57z"/>
		</g>
		<g>
			<path style="fill:#EFCEA5;" d="M385.507,303.637c0.219-0.079,0.354-0.204,0.507-0.372c0.337-0.369,0.233-1.11-0.191-1.371
				c-0.196-0.12-0.36-0.204-0.588-0.22c-0.665-0.044-1.252,0.47-1.154,1.162C384.177,303.526,384.883,303.862,385.507,303.637z"/>
			<path style="fill:#EFCEA5;" d="M383.912,306.375c-0.165-1.185-2.005-0.928-1.839,0.256
				C382.239,307.817,384.076,307.56,383.912,306.375z"/>
			<path style="fill:#EFCEA5;" d="M384.386,312.971c-0.151-1.086-1.836-0.85-1.684,0.237
				C382.855,314.294,384.537,314.059,384.386,312.971z"/>
			<path style="fill:#EFCEA5;" d="M373.03,311.602c-0.014-0.071-0.121-0.055-0.111,0.012
				C372.928,311.686,373.039,311.67,373.03,311.602z"/>
			<path style="fill:#EFCEA5;" d="M374.395,309.371c-0.11-0.787-1.336-0.617-1.225,0.172
				C373.279,310.334,374.507,310.164,374.395,309.371z"/>
			<path style="fill:#EFCEA5;" d="M376.304,304.479c-0.078-0.561-0.947-0.439-0.87,0.122
				C375.517,305.16,376.383,305.038,376.304,304.479z"/>
			<path style="fill:#EFCEA5;" d="M384.145,297.092c-0.194-1.387-2.344-1.087-2.149,0.301
				C382.188,298.78,384.342,298.48,384.145,297.092z"/>
			<path style="fill:#EFCEA5;" d="M384.108,289.795c0-0.029,0.004-0.059,0.004-0.091c0.023-0.104,0.027-0.221-0.022-0.36
				c-0.005-0.016-0.01-0.029-0.018-0.046c-0.103-0.313-0.368-0.389-0.611-0.327c-0.251,0.008-0.483,0.152-0.5,0.482
				c-0.003,0.017-0.003,0.036-0.003,0.052c-0.009,0.147,0.029,0.257,0.078,0.352c0.011,0.029,0.019,0.059,0.03,0.085
				C383.238,290.443,384.08,290.327,384.108,289.795z"/>
			<path style="fill:#EFCEA5;" d="M374.6,317.487c-0.177-1.25-2.116-0.981-1.941,0.271
				C372.833,319.011,374.774,318.737,374.6,317.487z"/>
			<path style="fill:#EFCEA5;" d="M367.731,298.462c-0.183-1.317-2.225-1.032-2.041,0.284
				C365.873,300.061,367.917,299.778,367.731,298.462z"/>
			<path style="fill:#EFCEA5;" d="M370.987,292.824c-0.178-1.284-2.17-1.005-1.992,0.277
				C369.177,294.385,371.17,294.107,370.987,292.824z"/>
			<path style="fill:#EFCEA5;" d="M372.239,298.568c-0.191-1.38-2.336-1.082-2.144,0.301
				C370.29,300.251,372.436,299.951,372.239,298.568z"/>
			<path style="fill:#EFCEA5;" d="M376.138,295.434c-0.21-1.48-2.505-1.159-2.298,0.321
				C374.046,297.236,376.344,296.914,376.138,295.434z"/>
			<path style="fill:#EFCEA5;" d="M376.136,291.363c-0.081-0.561-0.946-0.439-0.867,0.123
				C375.346,292.045,376.213,291.923,376.136,291.363z"/>
			<path style="fill:#EFCEA5;" d="M370.86,306.381c-0.156-1.12-1.891-0.875-1.736,0.244
				C369.283,307.743,371.018,307.501,370.86,306.381z"/>
			<path style="fill:#EFCEA5;" d="M362.674,293.801c-0.176-1.25-2.111-0.98-1.939,0.272
				C360.913,295.322,362.85,295.053,362.674,293.801z"/>
		</g>
		<g>
			<path style="fill:#EFCEA5;" d="M272.796,330.02c-1.926,0-1.926,2.989,0,2.989C274.725,333.009,274.725,330.02,272.796,330.02z"/>
			<path style="fill:#EFCEA5;" d="M271.406,337.243c-0.048-0.229-0.154-0.381-0.3-0.558c-0.318-0.382-1.065-0.382-1.384,0
				c-0.145,0.177-0.249,0.328-0.297,0.558c-0.137,0.647,0.29,1.301,0.991,1.301C271.113,338.544,271.543,337.891,271.406,337.243z"
				/>
			<path style="fill:#EFCEA5;" d="M273.897,339.199c-1.196,0-1.196,1.858,0,1.858C275.09,341.058,275.09,339.199,273.897,339.199z"
				/>
			<path style="fill:#EFCEA5;" d="M277.195,333.941c-1.362,0-1.362,2.114,0,2.114C278.557,336.056,278.557,333.941,277.195,333.941z
				"/>
			<path style="fill:#EFCEA5;" d="M280.495,339.647c-1.097,0-1.097,1.702,0,1.702C281.592,341.349,281.592,339.647,280.495,339.647z
				"/>
			<path style="fill:#EFCEA5;" d="M277.563,350.703c-0.07,0-0.07,0.111,0,0.111C277.634,350.815,277.634,350.703,277.563,350.703z"
				/>
			<path style="fill:#EFCEA5;" d="M277.144,345.854c-0.797,0-0.797,1.235,0,1.235C277.943,347.09,277.943,345.854,277.144,345.854z"
				/>
			<path style="fill:#EFCEA5;" d="M270.964,346.474c-0.565,0-0.565,0.874,0,0.874C271.53,347.348,271.53,346.474,270.964,346.474z"
				/>
			<path style="fill:#EFCEA5;" d="M264.732,337.684c-1.399,0-1.399,2.171,0,2.171C266.137,339.854,266.137,337.684,264.732,337.684z
				"/>
			<path style="fill:#EFCEA5;" d="M261.248,331.239c-1.062,0-1.062,1.65,0,1.65C262.313,332.89,262.313,331.239,261.248,331.239z"/>
			<path style="fill:#EFCEA5;" d="M276.755,328.058c-0.031-0.007-0.059-0.013-0.09-0.017c-0.1-0.04-0.215-0.058-0.36-0.032
				c-0.015,0.007-0.033,0.009-0.049,0.01c-0.324,0.065-0.436,0.314-0.409,0.564c-0.027,0.25,0.085,0.499,0.409,0.564
				c0.017,0.002,0.035,0.004,0.049,0.008c0.145,0.029,0.261,0.008,0.36-0.029c0.031-0.005,0.059-0.01,0.09-0.018
				C277.276,329.008,277.276,328.158,276.755,328.058z"/>
			<path style="fill:#EFCEA5;" d="M284.558,345.492c-1.263,0-1.263,1.959,0,1.959C285.82,347.451,285.82,345.492,284.558,345.492z"
				/>
		</g>
	</g>
	<g>
		<path style="fill:#A395C8;" d="M343.728,248.118c-2.575,0.266-3.898,3.618-1.38,5.095c1.451,0.851,3.366,1.587,4.963,2.132
			c1.655,0.564,2.574,1.462,4.409,1.108c0.435-0.085,0.905-0.541,0.98-0.982C353.409,251.403,347.359,247.743,343.728,248.118z"/>
		<path style="fill:#A395C8;" d="M260.625,269.718c-1.606-0.679-2.706-1.802-4.458-2.304c-1.575-0.452-3.022-1.223-4.591-1.666
			c-2.642-0.751-4.36,2.535-2.589,4.448c1.326,1.427,3.174,2.19,4.945,2.911c0.813,0.333,1.727,0.809,2.631,0.781
			c1.04-0.036,1.931-0.227,2.969-0.142C261.602,273.916,262.603,270.555,260.625,269.718z"/>
		<path style="fill:#A395C8;" d="M296.743,235.798c-3.109-1.728-7.03,1.087-9.854,2.457c-3.134,1.521-0.91,6.838,2.376,5.642
			c1.395-0.508,2.78-1.034,4.188-1.503c1.706-0.566,3.393-0.948,4.328-2.633C298.535,238.403,298.144,236.576,296.743,235.798z"/>
		<path style="fill:#A395C8;" d="M331.361,267.624c-3.069,0.444-5.96,1.925-8.944,2.816c-3.272,0.975-2.8,6.594,0.839,6.173
			c3.08-0.355,6.12-0.669,9.182-1.021C338.293,274.924,337.2,266.781,331.361,267.624z"/>
		<path style="fill:#FFC820;" d="M271.256,254.7c-0.247-1.214-0.252-2.511-0.693-3.669c-0.925-2.423-4.432-2.736-5.232,0
			c-0.388,1.322-0.243,2.6-0.085,3.945c0.199,1.655,0.493,3.14,1.693,4.381c1.422,1.473,3.605,0.6,4.248-1.122
			C271.616,257.086,271.492,255.88,271.256,254.7z"/>
		<path style="fill:#FFC820;" d="M340.346,256.313c-1.57,0.537-2.468,1.894-3.835,2.695c-0.597,0.35-1.31,0.436-1.936,0.758
			c-0.906,0.47-1.402,1.678-1.143,2.65c1.183,4.426,8.796,0.614,10.133-1.922C344.653,258.429,342.85,255.454,340.346,256.313z"/>
		<path style="fill:#FFC820;" d="M318.48,241.189c-1.91-0.545-3.802-0.376-5.751-0.187c-1.072,0.105-2.12,0.346-2.709,1.355
			c-0.265,0.451-0.461,1.042-0.199,1.53c0.773,1.422,1.802,1.701,3.418,1.781c1.532,0.074,3.048,0.289,4.574,0.46
			C320.711,246.457,321.124,241.944,318.48,241.189z"/>
		<path style="fill:#FFC820;" d="M291.846,274.155c-1.104-0.838-2.68-1.322-3.933-1.933c-1.456-0.714-2.993-1.965-4.683-1.456
			c-1.108,0.334-1.603,1.368-1.396,2.461c0.288,1.534,2.085,2.558,3.233,3.479c1.471,1.184,3.468,2.54,5.446,2.352
			C293.238,278.799,293.955,275.758,291.846,274.155z"/>
		<path style="fill:#D7DF23;" d="M260.292,255.73c-0.283-0.661-0.794-1.107-1.428-1.422c-0.195-0.101-0.382-0.21-0.568-0.328
			c-0.289-0.208-0.356-0.253-0.209-0.134c-0.831-0.665-2.083-1.424-3.175-1.359c-0.994,0.058-1.917,0.644-2.174,1.655
			c-0.724,2.835,3.16,6.519,5.955,5.518C260.458,259.03,261.005,257.389,260.292,255.73z"/>
		<path style="fill:#D7DF23;" d="M273.603,276.958c-0.662-0.89-1.045-1.591-2.197-1.831c-0.31-0.066-0.57,0.045-0.751,0.305
			c-1.109,1.62-0.143,4.671,1.461,5.65c1.115,0.683,2.683-0.192,2.643-1.516C274.724,278.47,274.232,277.807,273.603,276.958z"/>
		<path style="fill:#D7DF23;" d="M333.005,240.225c-1.04,0.619-1.926,1.742-2.59,2.74c-0.523,0.787-0.654,1.706-1.092,2.511
			c-0.38,0.703-0.077,1.786,0.797,1.952c1.198,0.229,2.411,0.196,3.472-0.486c1.149-0.738,2.322-1.931,3.015-3.117
			C337.931,241.553,335.285,238.87,333.005,240.225z"/>
		<path style="fill:#D7DF23;" d="M307.397,236.916c-1.535-1.536-4.283-1.236-5.36,0.691c-0.137,0.243-0.28,0.475-0.433,0.708
			c0.051-0.112-0.399,0.446-0.415,0.461c-0.83,0.842-1.373,1.507-1.396,2.775c-0.019,1.007,0.563,1.983,1.425,2.486
			c2.32,1.349,4.717-0.538,6.179-2.296C308.587,240.314,308.801,238.318,307.397,236.916z"/>
		<path style="fill:#D7DF23;" d="M312.968,274.896c-0.122-0.047-0.157-0.057-0.206-0.074c-0.251-0.116-0.495-0.255-0.738-0.388
			c-0.269-0.146-0.541-0.277-0.806-0.433c0.016,0.009-0.737-0.561-0.385-0.268c-0.698-0.582-1.177-1.073-2.061-1.421
			c-0.983-0.393-2.303,0.151-2.799,1.038c-1.039,1.843,0.091,3.448,1.239,4.862c1.07,1.32,2.549,2.078,4.117,2.633
			c1.588,0.561,3.373-0.618,3.797-2.153C315.594,276.983,314.554,275.458,312.968,274.896z"/>
		<path style="fill:#E36856;" d="M278.488,242.53c-1.22-0.678-2.609-1.035-3.898-1.556c-1.689-0.681-3.676,0.22-3.862,2.105
			c-0.14,1.479,0.959,2.41,2.05,3.162c1.066,0.737,2.136,1.419,3.369,1.84C279.44,249.206,281.467,244.184,278.488,242.53z"/>
		<path style="fill:#E36856;" d="M273.314,266.851c-1.143-0.156-2.462-0.547-3.601-0.232c-1.02,0.281-1.972,1.322-1.789,2.414
			c0.34,2.055,2.298,2.39,4.006,2.841c1.371,0.361,2.826-0.441,3.202-1.82C275.471,268.822,274.724,267.046,273.314,266.851z"/>
		<path style="fill:#E36856;" d="M349.228,263.112c-1.63,0.102-3.432,0.179-5.018,0.555c-1.566,0.371-3.374,2.166-2.555,3.848
			c1.309,2.698,4.999,2.584,7.573,2.273c1.805-0.218,3.336-1.353,3.336-3.339C352.565,264.714,351.045,263.002,349.228,263.112z"/>
		<path style="fill:#E36856;" d="M306.065,284.351c-0.386-0.571-0.772-0.936-1.321-1.344c-0.52-0.388-1.448-0.461-2.064-0.692
			c-0.393-0.151-0.771-0.435-1.136-0.648c-0.581-0.338-1.309-0.35-1.958-0.299c-0.529,0.041-1.068,0.344-1.191,0.905
			c-0.4,1.832,0.635,2.867,1.982,3.906c1.422,1.097,3.314,1.94,4.983,0.856C306.212,286.482,306.677,285.271,306.065,284.351z"/>
		<path style="fill:#E36856;" d="M321.798,236.331c-1.484-0.786-4.074-0.909-5.338,0.37c-0.677,0.684-0.7,1.593-0.313,2.421
			c0.795,1.695,3.457,1.985,5.056,1.764C323.386,240.582,323.56,237.267,321.798,236.331z"/>
		<path style="fill:#FFFFFF;" d="M345.706,249.038c-0.296-0.133-0.582-0.253-0.884-0.359c-1.274-0.446-1.82,1.571-0.556,2.014
			c0.126,0.051,0.256,0.099,0.382,0.148C345.868,251.389,346.93,249.589,345.706,249.038z"/>
		<path style="fill:#FFFFFF;" d="M350.12,251.464c-0.397-0.501-0.81-0.827-1.445-0.955c-1.2-0.239-1.774,1.218-0.808,1.911
			c0.425,0.307,0.879,0.403,1.373,0.559C350.19,253.28,350.641,252.111,350.12,251.464z"/>
		<path style="fill:#FFFFFF;" d="M351.266,253.202c-0.265-0.325-0.466-0.361-0.879-0.404c-0.085-0.012-0.112,0.089-0.085,0.152
			c0.196,0.44,0.25,0.56,0.686,0.729C351.284,253.793,351.425,253.398,351.266,253.202z"/>
		<path style="fill:#FFFFFF;" d="M332.855,241.189c-0.637,0.557-1.174,1.214-1.621,1.932c-0.581,0.931,0.594,2.176,1.537,1.536
			c0.862-0.58,1.135-1.393,1.725-2.204C335.235,241.443,333.696,240.453,332.855,241.189z"/>
		<path style="fill:#FFFFFF;" d="M337.513,258.98c-0.486,0.028-0.709,0.132-1.074,0.457c-0.604,0.543,0.041,1.434,0.746,1.281
			c0.487-0.108,0.7-0.254,0.921-0.705C338.319,259.58,338.07,258.945,337.513,258.98z"/>
		<path style="fill:#FFFFFF;" d="M342.364,257.239c-0.609-1.041-1.945-0.657-2.274,0.316c-0.373-0.049-0.779,0.103-1.025,0.45
			c-0.119,0.159-0.225,0.326-0.314,0.505c-0.746,0.245-0.157,1.341,0.477,0.826c0.14,0.048,0.279,0.107,0.429,0.119
			c0.437,0.063,0.848-0.126,1.07-0.45C341.797,259.565,342.976,258.28,342.364,257.239z"/>
		<path style="fill:#FFFFFF;" d="M345.369,264.465c-1.629,0-1.629,2.521,0,2.521C346.996,266.985,346.996,264.465,345.369,264.465z"
			/>
		<path style="fill:#FFFFFF;" d="M350.387,264.834c-0.53-0.055-1.026-0.177-1.559-0.129c-0.923,0.08-1.088,1.268-0.217,1.589
			c0.584,0.213,1.161,0.191,1.775,0.153C351.44,266.381,351.411,264.939,350.387,264.834z"/>
		<path style="fill:#FFFFFF;" d="M318.572,236.774c-0.551,0-0.551,0.855,0,0.855C319.123,237.629,319.123,236.774,318.572,236.774z"
			/>
		<path style="fill:#FFFFFF;" d="M320.43,236.36c-1.588,0-1.588,2.461,0,2.461C322.015,238.821,322.015,236.36,320.43,236.36z"/>
		<path style="fill:#FFFFFF;" d="M316.211,241.52c-0.113,0.003-0.226,0.004-0.338,0.011c-0.271,0.007-0.482,0.083-0.667,0.186
			c-0.2-0.084-0.435-0.122-0.735-0.021c-0.101,0.033-0.2,0.067-0.302,0.1c-0.766,0.255-1.088,1.447-0.244,1.855
			c0.093,0.044,0.184,0.088,0.273,0.132c0.355,0.17,0.628,0.172,0.865,0.115c0.127,0.115,0.276,0.213,0.45,0.286
			c0.107,0.043,0.211,0.086,0.32,0.131C317.688,245.082,318.418,241.459,316.211,241.52z"/>
		<path style="fill:#FFFFFF;" d="M326.15,271.316c-0.256-0.93-1.889-0.738-1.715,0.244
			C324.655,272.808,326.477,272.513,326.15,271.316z"/>
		<path style="fill:#FFFFFF;" d="M331.23,268.553c-0.694,0-1.173,0.319-1.47,0.759c-0.268-0.279-0.642-0.473-1.142-0.473
			c-2.145,0-2.145,3.325,0,3.325c0.521,0,0.913-0.201,1.181-0.502c0.305,0.402,0.772,0.688,1.431,0.688
			C333.68,272.35,333.68,268.553,331.23,268.553z"/>
		<path style="fill:#FFFFFF;" d="M312.316,275.815c-0.405-0.262-0.636-0.528-0.85-0.937c-0.199-0.373-0.446-0.475-0.676-0.426
			c-0.054-0.396-0.309-0.752-0.826-0.752c-1.157,0-1.157,1.794,0,1.794c0.049,0,0.082-0.02,0.126-0.028
			c0.009,0.314,0.191,0.573,0.718,0.556c0.497-0.02,0.941-0.008,1.435,0.058C312.396,276.098,312.422,275.881,312.316,275.815z"/>
		<path style="fill:#FFFFFF;" d="M304.273,284.482c-0.258-0.938-1.277-1.02-1.879-0.568c-0.126-0.142-0.242-0.273-0.353-0.348
			c0.033-0.254-0.027-0.532-0.254-0.772l-0.218-0.229c-1.035-1.087-2.536,0.912-1.23,1.595c0.093,0.05,0.187,0.096,0.278,0.146
			c0.364,0.19,0.729,0.136,1.003-0.047c0.108,0.06,0.243,0.108,0.402,0.162c-0.061,0.174-0.094,0.366-0.053,0.591
			C302.253,286.579,304.697,286.023,304.273,284.482z"/>
		<path style="fill:#FFFFFF;" d="M290.554,237.636c-0.209-0.092-0.439-0.167-0.702-0.232c-1.324-0.338-2.586,0.873-2.217,2.221
			c0.393,1.433,1.982,1.594,3.015,0.795c0.181-0.141,0.329-0.273,0.468-0.42C292.397,239.492,291.857,237.386,290.554,237.636z"/>
		<path style="fill:#FFFFFF;" d="M294.516,237.154c-0.324-0.557-1.277-0.489-1.421,0.186c-0.049,0.237-0.071,0.429-0.178,0.654
			c-0.036,0.07,0.008,0.147,0.086,0.152c0.212,0.041,0.424,0.092,0.637,0.152C294.296,238.475,294.864,237.747,294.516,237.154z"/>
		<path style="fill:#FFFFFF;" d="M302.658,238.449l-0.382,0.955c-0.035,0.092-0.038,0.174-0.053,0.261
			c-0.104-0.016-0.199-0.038-0.318-0.038c-0.418,0-0.859,0.232-1.059,0.607c-0.032,0.06-0.063,0.118-0.095,0.177
			c-0.195,0.36-0.201,0.931,0.157,1.209c0.04,0.034,0.085,0.068,0.129,0.102c0.431,0.333,0.982,0.515,1.489,0.193
			c0.463-0.295,0.711-0.673,0.775-1.034c0.369,0.043,0.755-0.028,1.042-0.275c0.272-0.233,0.543-0.467,0.817-0.7
			C306.84,238.456,303.655,235.962,302.658,238.449z"/>
		<path style="fill:#FFFFFF;" d="M278.372,243.921c-0.316-0.652-0.943-0.905-1.632-0.958c-0.186-0.018-0.403-0.064-0.613-0.091
			c-0.015-0.019-0.023-0.026-0.039-0.048c-0.174-0.138-0.353-0.271-0.533-0.403c-1.546-1.124-3.236,1.714-1.499,2.565
			c0.321,0.158,0.595,0.233,0.888,0.264c0.039,0.042,0.114,0.096,0.236,0.167c0.175,0.092,0.352,0.172,0.535,0.245
			c0.826,0.355,1.819,0.559,2.465-0.245C278.553,244.951,278.637,244.47,278.372,243.921z"/>
		<path style="fill:#FFFFFF;" d="M269.496,252.737c-0.403-1.581-2.895-0.581-2.064,0.87c0.506,0.887,0.475,1.818,0.718,2.788
			c0.348,1.389,2.466,1.075,2.466-0.333C270.615,254.781,269.803,253.932,269.496,252.737z"/>
		<path style="fill:#FFFFFF;" d="M257.531,254.447c-0.508-0.414-0.871-0.601-1.533-0.651c-0.877-0.065-1.488,0.896-1.279,1.682
			c0.166,0.631,0.464,0.965,1.017,1.296C257.15,257.615,258.864,255.524,257.531,254.447z"/>
		<path style="fill:#FFFFFF;" d="M256.824,268.685c-0.108-0.051-0.209-0.1-0.316-0.152c-1.596-0.785-2.353,1.874-0.551,2.046
			c0.112,0.012,0.229,0.022,0.341,0.031C257.32,270.708,257.722,269.129,256.824,268.685z"/>
		<path style="fill:#FFFFFF;" d="M258.402,269.845c-0.131,0-0.131,0.202,0,0.202C258.533,270.047,258.533,269.845,258.402,269.845z"
			/>
		<path style="fill:#FFFFFF;" d="M252.916,267.25c-1.408,0-1.408,2.184,0,2.184C254.327,269.434,254.327,267.25,252.916,267.25z"/>
		<path style="fill:#FFFFFF;" d="M271.787,268.121c-0.028-0.027-0.057-0.053-0.085-0.081c-0.031-0.032-0.063-0.032-0.095-0.04
			c-0.009-0.027,0.011-0.053-0.006-0.08c-0.206-0.293-0.317-0.392-0.632-0.584c-0.774-0.463-1.312,0.918-0.466,1.102
			c0.396,0.086,0.522,0.107,0.898-0.028c0.028-0.012,0.045-0.045,0.071-0.064c0.015,0.016,0.031,0.028,0.046,0.045
			C271.693,268.563,271.96,268.296,271.787,268.121z"/>
		<path style="fill:#FFFFFF;" d="M273.807,268.658c-0.055-0.081-0.106-0.163-0.158-0.241c-0.964-1.471-2.923,0.53-1.459,1.458
			c0.081,0.051,0.163,0.102,0.244,0.155C273.27,270.561,274.358,269.5,273.807,268.658z"/>
		<path style="fill:#FFFFFF;" d="M273.108,278.502c-0.031,0-0.052,0.015-0.083,0.015c0.199-0.334,0.064-0.871-0.446-0.871
			c-0.7,0-0.712,1.013-0.073,1.105c-0.454,0.481-0.256,1.497,0.603,1.497C274.232,280.248,274.232,278.502,273.108,278.502z"/>
		<path style="fill:#FFFFFF;" d="M290.371,274.779c0.143-1.177-0.945-1.982-2.076-2.197c-0.616-1.035-2.245-1.468-3.252-0.858
			c-0.364,0.219-0.656,0.705-0.602,1.137c0.132,1.096,1.021,1.984,2.059,2.191c0.63,1.054,2.147,1.702,3.155,0.98
			C290.327,276.032,290.554,275.324,290.371,274.779z"/>
	</g>
</g>
</svg>
