<svg xmlns="http://www.w3.org/2000/svg" version="1.1" xmlns:xlink="http://www.w3.org/1999/xlink" xmlns:svgjs="http://svgjs.dev/svgjs" width="1440" height="560" preserveAspectRatio="none" viewBox="0 0 1440 560"><g mask="url(&quot;#SvgjsMask1023&quot;)" fill="none"><rect width="1440" height="560" x="0" y="0" fill="rgba(204, 198, 19, 1)"></rect><path d="M1488 560L0 560 L0 275.22Q43.69 246.92, 72 290.61Q160.73 259.34, 192 348.06Q204.14 240.2, 312 252.35Q383.83 204.18, 432 276Q513.24 237.24, 552 318.48Q583.61 230.09, 672 261.7Q741.04 210.74, 792 279.78Q841.33 257.11, 864 306.43Q879.5 249.94, 936 265.44Q1009.6 219.03, 1056 292.63Q1127.09 243.72, 1176 314.81Q1257.39 276.21, 1296 357.6Q1307.18 248.79, 1416 259.97Q1457.69 229.66, 1488 271.35z" fill="rgba(93, 86, 24, 1)"></path><path d="M1488 560L0 560 L0 416.9Q5.56 350.46, 72 356.03Q102.06 314.08, 144 344.14Q202.94 331.08, 216 390.02Q263.29 365.31, 288 412.6Q335.94 388.54, 360 436.48Q384.45 340.94, 480 365.39Q523.66 337.05, 552 380.71Q598.06 354.77, 624 400.83Q655.68 312.51, 744 344.2Q814.93 295.13, 864 366.06Q909.46 339.52, 936 384.98Q969.87 298.85, 1056 332.72Q1102.11 306.83, 1128 352.94Q1199.54 304.48, 1248 376.01Q1332.53 340.54, 1368 425.07Q1386.33 323.4, 1488 341.73z" fill="rgba(125, 120, 37, 1)"></path><path d="M1488 560L0 560 L0 501.01Q20.23 401.24, 120 421.46Q164.11 393.56, 192 437.67Q248.39 422.06, 264 478.45Q286.11 428.56, 336 450.67Q360.28 402.95, 408 427.23Q461.5 408.74, 480 462.24Q559.35 421.59, 600 500.94Q615.52 396.46, 720 411.98Q762.43 382.42, 792 424.85Q865.02 377.88, 912 450.9Q967.24 434.14, 984 489.38Q1009.55 442.93, 1056 468.48Q1109.57 450.05, 1128 503.61Q1148.94 404.56, 1248 425.5Q1302.03 359.52, 1368 413.55Q1467.36 392.91, 1488 492.27z" fill="rgba(161, 144, 48, 1)"></path><path d="M1464 560L0 560 L0 566.84Q-5.46 489.38, 72 483.93Q116.56 456.49, 144 501.04Q195.93 480.97, 216 532.9Q266.52 463.42, 336 513.94Q430.97 488.91, 456 583.89Q474.96 530.85, 528 549.8Q544.82 494.62, 600 511.43Q667.86 459.29, 720 527.16Q767.47 502.63, 792 550.09Q867.39 505.49, 912 580.88Q948.84 497.72, 1032 534.56Q1097.76 480.32, 1152 546.07Q1187.13 461.21, 1272 496.34Q1315.86 468.2, 1344 512.06Q1413.66 461.72, 1464 531.39z" fill="rgba(255, 255, 255, 1)"></path></g><defs><mask id="SvgjsMask1023"><rect width="1440" height="560" fill="#ffffff"></rect></mask></defs></svg>